<svg xmlns="http://www.w3.org/2000/svg" width="1341.97" height="181.787" viewBox="0 0 1341.97 181.787">
  <g id="Group_818" data-name="Group 818" transform="translate(-16.032 -349)">
    <g id="Group_816" data-name="Group 816" transform="translate(77 89.794)">
      <path id="Path_647" data-name="Path 647" d="M600,159a1,1,0,1,0,1,1,1,1,0,0,0-1-1" transform="translate(380.022 239.889)" fill="#30ba78"/>
      <path id="Path_648" data-name="Path 648" d="M600,179a1,1,0,1,0,1,1,1,1,0,0,0-1-1" transform="translate(380.022 239.844)" fill="#30ba78"/>
      <path id="Path_649" data-name="Path 649" d="M600,139a1,1,0,1,0,1,1,1,1,0,0,0-1-1" transform="translate(380.022 239.934)" fill="#30ba78"/>
      <path id="Path_650" data-name="Path 650" d="M600,119a1,1,0,1,0,1,1,1,1,0,0,0-1-1" transform="translate(380.022 239.98)" fill="#30ba78"/>
      <path id="Path_651" data-name="Path 651" d="M600,99a1,1,0,1,0,1,1,1,1,0,0,0-1-1" transform="translate(380.022 240.025)" fill="#30ba78"/>
      <path id="Path_653" data-name="Path 653" d="M600,199a1,1,0,1,0,1,1,1,1,0,0,0-1-1" transform="translate(380.022 239.798)" fill="#30ba78"/>
      <path id="Path_657" data-name="Path 657" d="M600,79a1,1,0,1,0,1,1,1,1,0,0,0-1-1" transform="translate(380.022 240.07)" fill="#30ba78"/>
      <path id="Path_658" data-name="Path 658" d="M620,199a1,1,0,1,0,1,1,1,1,0,0,0-1-1" transform="translate(380.021 239.798)" fill="#30ba78"/>
      <path id="Path_659" data-name="Path 659" d="M620,179a1,1,0,1,0,1,1,1,1,0,0,0-1-1" transform="translate(380.021 239.844)" fill="#30ba78"/>
      <path id="Path_660" data-name="Path 660" d="M580,19a1,1,0,1,0,1,1,1,1,0,0,0-1-1" transform="translate(380.023 240.206)" fill="#30ba78"/>
      <path id="Path_661" data-name="Path 661" d="M600,19a1,1,0,1,0,1,1,1,1,0,0,0-1-1" transform="translate(380.022 240.206)" fill="#30ba78"/>
      <path id="Path_662" data-name="Path 662" d="M600,59a1,1,0,1,0,1,1,1,1,0,0,0-1-1" transform="translate(380.022 240.116)" fill="#30ba78"/>
      <path id="Path_663" data-name="Path 663" d="M600,39a1,1,0,1,0,1,1,1,1,0,0,0-1-1" transform="translate(380.022 240.161)" fill="#30ba78"/>
      <path id="Path_664" data-name="Path 664" d="M580,79a1,1,0,1,0,1,1,1,1,0,0,0-1-1" transform="translate(380.023 240.07)" fill="#30ba78"/>
      <path id="Path_665" data-name="Path 665" d="M560,59a1,1,0,1,0,1,1,1,1,0,0,0-1-1" transform="translate(380.025 240.116)" fill="#30ba78"/>
      <path id="Path_666" data-name="Path 666" d="M560,39a1,1,0,1,0,1,1,1,1,0,0,0-1-1" transform="translate(380.025 240.161)" fill="#30ba78"/>
      <path id="Path_667" data-name="Path 667" d="M560,79a1,1,0,1,0,1,1,1,1,0,0,0-1-1" transform="translate(380.025 240.07)" fill="#30ba78"/>
      <path id="Path_668" data-name="Path 668" d="M560,19a1,1,0,1,0,1,1,1,1,0,0,0-1-1" transform="translate(380.025 240.206)" fill="#30ba78"/>
      <path id="Path_669" data-name="Path 669" d="M560,99a1,1,0,1,0,1,1,1,1,0,0,0-1-1" transform="translate(380.025 240.025)" fill="#30ba78"/>
      <path id="Path_670" data-name="Path 670" d="M560,139a1,1,0,1,0,1,1,1,1,0,0,0-1-1" transform="translate(380.025 239.934)" fill="#30ba78"/>
      <path id="Path_671" data-name="Path 671" d="M560,119a1,1,0,1,0,1,1,1,1,0,0,0-1-1" transform="translate(380.025 239.98)" fill="#30ba78"/>
      <path id="Path_673" data-name="Path 673" d="M580,159a1,1,0,1,0,1,1,1,1,0,0,0-1-1" transform="translate(380.023 239.889)" fill="#30ba78"/>
      <path id="Path_674" data-name="Path 674" d="M620,159a1,1,0,1,0,1,1,1,1,0,0,0-1-1" transform="translate(380.021 239.889)" fill="#30ba78"/>
      <path id="Path_676" data-name="Path 676" d="M580,99a1,1,0,1,0,1,1,1,1,0,0,0-1-1" transform="translate(380.023 240.025)" fill="#30ba78"/>
      <path id="Path_677" data-name="Path 677" d="M580,59a1,1,0,1,0,1,1,1,1,0,0,0-1-1" transform="translate(380.023 240.116)" fill="#30ba78"/>
      <path id="Path_678" data-name="Path 678" d="M580,139a1,1,0,1,0,1,1,1,1,0,0,0-1-1" transform="translate(380.023 239.934)" fill="#30ba78"/>
      <path id="Path_679" data-name="Path 679" d="M580,199a1,1,0,1,0,1,1,1,1,0,0,0-1-1" transform="translate(380.023 239.798)" fill="#30ba78"/>
      <path id="Path_680" data-name="Path 680" d="M580,179a1,1,0,1,0,1,1,1,1,0,0,0-1-1" transform="translate(380.023 239.844)" fill="#30ba78"/>
      <path id="Path_681" data-name="Path 681" d="M580,39a1,1,0,1,0,1,1,1,1,0,0,0-1-1" transform="translate(380.023 240.161)" fill="#30ba78"/>
      <path id="Path_682" data-name="Path 682" d="M580,119a1,1,0,1,0,1,1,1,1,0,0,0-1-1" transform="translate(380.023 239.98)" fill="#30ba78"/>
      <path id="Path_683" data-name="Path 683" d="M660,99a1,1,0,1,0,1,1,1,1,0,0,0-1-1" transform="translate(380.018 240.025)" fill="#30ba78"/>
      <path id="Path_684" data-name="Path 684" d="M660,179a1,1,0,1,0,1,1,1,1,0,0,0-1-1" transform="translate(380.018 239.844)" fill="#30ba78"/>
      <path id="Path_685" data-name="Path 685" d="M660,139a1,1,0,1,0,1,1,1,1,0,0,0-1-1" transform="translate(380.018 239.934)" fill="#30ba78"/>
      <path id="Path_686" data-name="Path 686" d="M660,119a1,1,0,1,0,1,1,1,1,0,0,0-1-1" transform="translate(380.018 239.98)" fill="#30ba78"/>
      <path id="Path_687" data-name="Path 687" d="M660,159a1,1,0,1,0,1,1,1,1,0,0,0-1-1" transform="translate(380.018 239.889)" fill="#30ba78"/>
      <path id="Path_689" data-name="Path 689" d="M660,199a1,1,0,1,0,1,1,1,1,0,0,0-1-1" transform="translate(380.018 239.798)" fill="#30ba78"/>
      <path id="Path_691" data-name="Path 691" d="M680,199a1,1,0,1,0,1,1,1,1,0,0,0-1-1" transform="translate(380.017 239.798)" fill="#30ba78"/>
      <path id="Path_692" data-name="Path 692" d="M680,179a1,1,0,1,0,1,1,1,1,0,0,0-1-1" transform="translate(380.017 239.844)" fill="#30ba78"/>
      <path id="Path_693" data-name="Path 693" d="M640,19a1,1,0,1,0,1,1,1,1,0,0,0-1-1" transform="translate(380.02 240.206)" fill="#30ba78"/>
      <path id="Path_694" data-name="Path 694" d="M560,159a1,1,0,1,0,1,1,1,1,0,0,0-1-1" transform="translate(380.025 239.889)" fill="#30ba78"/>
      <path id="Path_695" data-name="Path 695" d="M660,79a1,1,0,1,0,1,1,1,1,0,0,0-1-1" transform="translate(380.018 240.07)" fill="#30ba78"/>
      <path id="Path_697" data-name="Path 697" d="M660,59a1,1,0,1,0,1,1,1,1,0,0,0-1-1" transform="translate(380.018 240.116)" fill="#30ba78"/>
      <path id="Path_698" data-name="Path 698" d="M660,39a1,1,0,1,0,1,1,1,1,0,0,0-1-1" transform="translate(380.018 240.161)" fill="#30ba78"/>
      <path id="Path_699" data-name="Path 699" d="M660,19a1,1,0,1,0,1,1,1,1,0,0,0-1-1" transform="translate(380.018 240.206)" fill="#30ba78"/>
      <path id="Path_701" data-name="Path 701" d="M620,39a1,1,0,1,0,1,1,1,1,0,0,0-1-1" transform="translate(380.021 240.161)" fill="#30ba78"/>
      <path id="Path_702" data-name="Path 702" d="M620,19a1,1,0,1,0,1,1,1,1,0,0,0-1-1" transform="translate(380.021 240.206)" fill="#30ba78"/>
      <path id="Path_703" data-name="Path 703" d="M640,39a1,1,0,1,0,1,1,1,1,0,0,0-1-1" transform="translate(380.02 240.161)" fill="#30ba78"/>
      <path id="Path_705" data-name="Path 705" d="M620,79a1,1,0,1,0,1,1,1,1,0,0,0-1-1" transform="translate(380.021 240.07)" fill="#30ba78"/>
      <path id="Path_706" data-name="Path 706" d="M620,119a1,1,0,1,0,1,1,1,1,0,0,0-1-1" transform="translate(380.021 239.98)" fill="#30ba78"/>
      <path id="Path_707" data-name="Path 707" d="M620,99a1,1,0,1,0,1,1,1,1,0,0,0-1-1" transform="translate(380.021 240.025)" fill="#30ba78"/>
      <path id="Path_708" data-name="Path 708" d="M620,139a1,1,0,1,0,1,1,1,1,0,0,0-1-1" transform="translate(380.021 239.934)" fill="#30ba78"/>
      <path id="Path_709" data-name="Path 709" d="M620,59a1,1,0,1,0,1,1,1,1,0,0,0-1-1" transform="translate(380.021 240.116)" fill="#30ba78"/>
      <path id="Path_710" data-name="Path 710" d="M640,79a1,1,0,1,0,1,1,1,1,0,0,0-1-1" transform="translate(380.02 240.07)" fill="#30ba78"/>
      <path id="Path_711" data-name="Path 711" d="M640,99a1,1,0,1,0,1,1,1,1,0,0,0-1-1" transform="translate(380.02 240.025)" fill="#30ba78"/>
      <path id="Path_712" data-name="Path 712" d="M640,119a1,1,0,1,0,1,1,1,1,0,0,0-1-1" transform="translate(380.02 239.98)" fill="#30ba78"/>
      <path id="Path_713" data-name="Path 713" d="M640,59a1,1,0,1,0,1,1,1,1,0,0,0-1-1" transform="translate(380.02 240.116)" fill="#30ba78"/>
      <path id="Path_714" data-name="Path 714" d="M640,139a1,1,0,1,0,1,1,1,1,0,0,0-1-1" transform="translate(380.02 239.934)" fill="#30ba78"/>
      <path id="Path_715" data-name="Path 715" d="M640,179a1,1,0,1,0,1,1,1,1,0,0,0-1-1" transform="translate(380.02 239.844)" fill="#30ba78"/>
      <path id="Path_716" data-name="Path 716" d="M640,199a1,1,0,1,0,1,1,1,1,0,0,0-1-1" transform="translate(380.02 239.798)" fill="#30ba78"/>
      <path id="Path_717" data-name="Path 717" d="M640,159a1,1,0,1,0,1,1,1,1,0,0,0-1-1" transform="translate(380.02 239.889)" fill="#30ba78"/>
      <path id="Path_718" data-name="Path 718" d="M799.9,161.2a1,1,0,1,0-1-1,1,1,0,0,0,1,1" transform="translate(380.008 239.888)" fill="#30ba78"/>
      <path id="Path_719" data-name="Path 719" d="M480,199a1,1,0,1,0,1,1,1,1,0,0,0-1-1" transform="translate(380.03 239.798)" fill="#30ba78"/>
      <path id="Path_720" data-name="Path 720" d="M480,119a1,1,0,1,0,1,1,1,1,0,0,0-1-1" transform="translate(380.03 239.98)" fill="#30ba78"/>
      <path id="Path_721" data-name="Path 721" d="M480,159a1,1,0,1,0,1,1,1,1,0,0,0-1-1" transform="translate(380.03 239.889)" fill="#30ba78"/>
      <path id="Path_722" data-name="Path 722" d="M480,139a1,1,0,1,0,1,1,1,1,0,0,0-1-1" transform="translate(380.03 239.934)" fill="#30ba78"/>
      <path id="Path_723" data-name="Path 723" d="M460,39a1,1,0,1,0,1,1,1,1,0,0,0-1-1" transform="translate(380.032 240.161)" fill="#30ba78"/>
      <path id="Path_725" data-name="Path 725" d="M460,19a1,1,0,1,0,1,1,1,1,0,0,0-1-1" transform="translate(380.032 240.206)" fill="#30ba78"/>
      <path id="Path_726" data-name="Path 726" d="M799.9,41.2a1,1,0,1,0-1-1,1,1,0,0,0,1,1" transform="translate(380.008 240.161)" fill="#30ba78"/>
      <path id="Path_727" data-name="Path 727" d="M480,179a1,1,0,1,0,1,1,1,1,0,0,0-1-1" transform="translate(380.03 239.844)" fill="#30ba78"/>
      <path id="Path_730" data-name="Path 730" d="M480,19a1,1,0,1,0,1,1,1,1,0,0,0-1-1" transform="translate(380.03 240.206)" fill="#30ba78"/>
      <path id="Path_731" data-name="Path 731" d="M500,199a1,1,0,1,0,1,1,1,1,0,0,0-1-1" transform="translate(380.029 239.798)" fill="#30ba78"/>
      <path id="Path_732" data-name="Path 732" d="M480,99a1,1,0,1,0,1,1,1,1,0,0,0-1-1" transform="translate(380.03 240.025)" fill="#30ba78"/>
      <path id="Path_733" data-name="Path 733" d="M480,79a1,1,0,1,0,1,1,1,1,0,0,0-1-1" transform="translate(380.03 240.07)" fill="#30ba78"/>
      <path id="Path_734" data-name="Path 734" d="M480,59a1,1,0,1,0,1,1,1,1,0,0,0-1-1" transform="translate(380.03 240.116)" fill="#30ba78"/>
      <path id="Path_735" data-name="Path 735" d="M480,39a1,1,0,1,0,1,1,1,1,0,0,0-1-1" transform="translate(380.03 240.161)" fill="#30ba78"/>
      <path id="Path_736" data-name="Path 736" d="M500,179a1,1,0,1,0,1,1,1,1,0,0,0-1-1" transform="translate(380.029 239.844)" fill="#30ba78"/>
      <path id="Path_737" data-name="Path 737" d="M799.9,21.2a1,1,0,1,0-1-1,1,1,0,0,0,1,1" transform="translate(380.008 240.206)" fill="#30ba78"/>
      <path id="Path_738" data-name="Path 738" d="M799.9,81.2a1,1,0,1,0-1-1,1,1,0,0,0,1,1" transform="translate(380.008 240.07)" fill="#30ba78"/>
      <path id="Path_739" data-name="Path 739" d="M799.9,101.2a1,1,0,1,0-1-1,1,1,0,0,0,1,1" transform="translate(380.008 240.025)" fill="#30ba78"/>
      <path id="Path_740" data-name="Path 740" d="M799.9,61.2a1,1,0,1,0-1-1,1,1,0,0,0,1,1" transform="translate(380.008 240.115)" fill="#30ba78"/>
      <path id="Path_741" data-name="Path 741" d="M799.9,121.2a1,1,0,1,0-1-1,1,1,0,0,0,1,1" transform="translate(380.008 239.979)" fill="#30ba78"/>
      <path id="Path_742" data-name="Path 742" d="M799.9,141.2a1,1,0,1,0-1-1,1,1,0,0,0,1,1" transform="translate(380.008 239.934)" fill="#30ba78"/>
      <path id="Path_743" data-name="Path 743" d="M799.9,181.2a1,1,0,1,0-1-1,1,1,0,0,0,1,1" transform="translate(380.008 239.843)" fill="#30ba78"/>
      <path id="Path_744" data-name="Path 744" d="M680,159a1,1,0,1,0,1,1,1,1,0,0,0-1-1" transform="translate(380.017 239.889)" fill="#30ba78"/>
      <path id="Path_745" data-name="Path 745" d="M460,179a1,1,0,1,0,1,1,1,1,0,0,0-1-1" transform="translate(380.032 239.844)" fill="#30ba78"/>
      <path id="Path_746" data-name="Path 746" d="M560,179a1,1,0,1,0,1,1,1,1,0,0,0-1-1" transform="translate(380.025 239.844)" fill="#30ba78"/>
      <path id="Path_747" data-name="Path 747" d="M460,119a1,1,0,1,0,1,1,1,1,0,0,0-1-1" transform="translate(380.032 239.98)" fill="#30ba78"/>
      <path id="Path_748" data-name="Path 748" d="M460,79a1,1,0,1,0,1,1,1,1,0,0,0-1-1" transform="translate(380.032 240.07)" fill="#30ba78"/>
      <path id="Path_750" data-name="Path 750" d="M460,139a1,1,0,1,0,1,1,1,1,0,0,0-1-1" transform="translate(380.032 239.934)" fill="#30ba78"/>
      <path id="Path_751" data-name="Path 751" d="M460,159a1,1,0,1,0,1,1,1,1,0,0,0-1-1" transform="translate(380.032 239.889)" fill="#30ba78"/>
      <path id="Path_752" data-name="Path 752" d="M460,199a1,1,0,1,0,1,1,1,1,0,0,0-1-1" transform="translate(380.032 239.798)" fill="#30ba78"/>
      <path id="Path_753" data-name="Path 753" d="M460,59a1,1,0,1,0,1,1,1,1,0,0,0-1-1" transform="translate(380.032 240.116)" fill="#30ba78"/>
      <path id="Path_754" data-name="Path 754" d="M460,99a1,1,0,1,0,1,1,1,1,0,0,0-1-1" transform="translate(380.032 240.025)" fill="#30ba78"/>
      <path id="Path_755" data-name="Path 755" d="M540,199a1,1,0,1,0,1,1,1,1,0,0,0-1-1" transform="translate(380.026 239.798)" fill="#30ba78"/>
      <path id="Path_756" data-name="Path 756" d="M540,159a1,1,0,1,0,1,1,1,1,0,0,0-1-1" transform="translate(380.026 239.889)" fill="#30ba78"/>
      <path id="Path_757" data-name="Path 757" d="M540,119a1,1,0,1,0,1,1,1,1,0,0,0-1-1" transform="translate(380.026 239.98)" fill="#30ba78"/>
      <path id="Path_758" data-name="Path 758" d="M540,139a1,1,0,1,0,1,1,1,1,0,0,0-1-1" transform="translate(380.026 239.934)" fill="#30ba78"/>
      <path id="Path_759" data-name="Path 759" d="M540,179a1,1,0,1,0,1,1,1,1,0,0,0-1-1" transform="translate(380.026 239.844)" fill="#30ba78"/>
      <path id="Path_761" data-name="Path 761" d="M520,19a1,1,0,1,0,1,1,1,1,0,0,0-1-1" transform="translate(380.027 240.206)" fill="#30ba78"/>
      <path id="Path_763" data-name="Path 763" d="M540,59a1,1,0,1,0,1,1,1,1,0,0,0-1-1" transform="translate(380.026 240.116)" fill="#30ba78"/>
      <path id="Path_764" data-name="Path 764" d="M540,99a1,1,0,1,0,1,1,1,1,0,0,0-1-1" transform="translate(380.026 240.025)" fill="#30ba78"/>
      <path id="Path_767" data-name="Path 767" d="M560,199a1,1,0,1,0,1,1,1,1,0,0,0-1-1" transform="translate(380.025 239.798)" fill="#30ba78"/>
      <path id="Path_768" data-name="Path 768" d="M540,19a1,1,0,1,0,1,1,1,1,0,0,0-1-1" transform="translate(380.026 240.206)" fill="#30ba78"/>
      <path id="Path_769" data-name="Path 769" d="M540,39a1,1,0,1,0,1,1,1,1,0,0,0-1-1" transform="translate(380.026 240.161)" fill="#30ba78"/>
      <path id="Path_770" data-name="Path 770" d="M540,79a1,1,0,1,0,1,1,1,1,0,0,0-1-1" transform="translate(380.026 240.07)" fill="#30ba78"/>
      <path id="Path_771" data-name="Path 771" d="M520,39a1,1,0,1,0,1,1,1,1,0,0,0-1-1" transform="translate(380.027 240.161)" fill="#30ba78"/>
      <path id="Path_772" data-name="Path 772" d="M500,159a1,1,0,1,0,1,1,1,1,0,0,0-1-1" transform="translate(380.029 239.889)" fill="#30ba78"/>
      <path id="Path_773" data-name="Path 773" d="M500,59a1,1,0,1,0,1,1,1,1,0,0,0-1-1" transform="translate(380.029 240.116)" fill="#30ba78"/>
      <path id="Path_775" data-name="Path 775" d="M500,39a1,1,0,1,0,1,1,1,1,0,0,0-1-1" transform="translate(380.029 240.161)" fill="#30ba78"/>
      <path id="Path_776" data-name="Path 776" d="M500,19a1,1,0,1,0,1,1,1,1,0,0,0-1-1" transform="translate(380.029 240.206)" fill="#30ba78"/>
      <path id="Path_777" data-name="Path 777" d="M500,79a1,1,0,1,0,1,1,1,1,0,0,0-1-1" transform="translate(380.029 240.07)" fill="#30ba78"/>
      <path id="Path_778" data-name="Path 778" d="M500,139a1,1,0,1,0,1,1,1,1,0,0,0-1-1" transform="translate(380.029 239.934)" fill="#30ba78"/>
      <path id="Path_779" data-name="Path 779" d="M500,119a1,1,0,1,0,1,1,1,1,0,0,0-1-1" transform="translate(380.029 239.98)" fill="#30ba78"/>
      <path id="Path_780" data-name="Path 780" d="M500,99a1,1,0,1,0,1,1,1,1,0,0,0-1-1" transform="translate(380.029 240.025)" fill="#30ba78"/>
      <path id="Path_781" data-name="Path 781" d="M520,199a1,1,0,1,0,1,1,1,1,0,0,0-1-1" transform="translate(380.027 239.798)" fill="#30ba78"/>
      <path id="Path_782" data-name="Path 782" d="M520,99a1,1,0,1,0,1,1,1,1,0,0,0-1-1" transform="translate(380.027 240.025)" fill="#30ba78"/>
      <path id="Path_783" data-name="Path 783" d="M520,139a1,1,0,1,0,1,1,1,1,0,0,0-1-1" transform="translate(380.027 239.934)" fill="#30ba78"/>
      <path id="Path_784" data-name="Path 784" d="M520,119a1,1,0,1,0,1,1,1,1,0,0,0-1-1" transform="translate(380.027 239.98)" fill="#30ba78"/>
      <path id="Path_785" data-name="Path 785" d="M520,79a1,1,0,1,0,1,1,1,1,0,0,0-1-1" transform="translate(380.027 240.07)" fill="#30ba78"/>
      <path id="Path_787" data-name="Path 787" d="M520,59a1,1,0,1,0,1,1,1,1,0,0,0-1-1" transform="translate(380.027 240.116)" fill="#30ba78"/>
      <path id="Path_788" data-name="Path 788" d="M520,179a1,1,0,1,0,1,1,1,1,0,0,0-1-1" transform="translate(380.027 239.844)" fill="#30ba78"/>
      <path id="Path_789" data-name="Path 789" d="M520,159a1,1,0,1,0,1,1,1,1,0,0,0-1-1" transform="translate(380.027 239.889)" fill="#30ba78"/>
      <path id="Path_791" data-name="Path 791" d="M860,199a1,1,0,1,0,1,1,1,1,0,0,0-1-1" transform="translate(380.004 239.798)" fill="#30ba78"/>
      <path id="Path_793" data-name="Path 793" d="M860,179a1,1,0,1,0,1,1,1,1,0,0,0-1-1" transform="translate(380.004 239.844)" fill="#30ba78"/>
      <path id="Path_795" data-name="Path 795" d="M840,79a1,1,0,1,0,1,1,1,1,0,0,0-1-1" transform="translate(380.005 240.07)" fill="#30ba78"/>
      <path id="Path_796" data-name="Path 796" d="M840,59a1,1,0,1,0,1,1,1,1,0,0,0-1-1" transform="translate(380.005 240.116)" fill="#30ba78"/>
      <path id="Path_797" data-name="Path 797" d="M840,19a1,1,0,1,0,1,1,1,1,0,0,0-1-1" transform="translate(380.005 240.206)" fill="#30ba78"/>
      <path id="Path_798" data-name="Path 798" d="M860,159a1,1,0,1,0,1,1,1,1,0,0,0-1-1" transform="translate(380.004 239.889)" fill="#30ba78"/>
      <path id="Path_799" data-name="Path 799" d="M840,39a1,1,0,1,0,1,1,1,1,0,0,0-1-1" transform="translate(380.005 240.161)" fill="#30ba78"/>
      <path id="Path_800" data-name="Path 800" d="M860,119a1,1,0,1,0,1,1,1,1,0,0,0-1-1" transform="translate(380.004 239.98)" fill="#30ba78"/>
      <path id="Path_801" data-name="Path 801" d="M860,59a1,1,0,1,0,1,1,1,1,0,0,0-1-1" transform="translate(380.004 240.116)" fill="#30ba78"/>
      <path id="Path_802" data-name="Path 802" d="M860,39a1,1,0,1,0,1,1,1,1,0,0,0-1-1" transform="translate(380.004 240.161)" fill="#30ba78"/>
      <path id="Path_803" data-name="Path 803" d="M860,19a1,1,0,1,0,1,1,1,1,0,0,0-1-1" transform="translate(380.004 240.206)" fill="#30ba78"/>
      <path id="Path_805" data-name="Path 805" d="M860,79a1,1,0,1,0,1,1,1,1,0,0,0-1-1" transform="translate(380.004 240.07)" fill="#30ba78"/>
      <path id="Path_806" data-name="Path 806" d="M840,99a1,1,0,1,0,1,1,1,1,0,0,0-1-1" transform="translate(380.005 240.025)" fill="#30ba78"/>
      <path id="Path_807" data-name="Path 807" d="M860,139a1,1,0,1,0,1,1,1,1,0,0,0-1-1" transform="translate(380.004 239.934)" fill="#30ba78"/>
      <path id="Path_808" data-name="Path 808" d="M860,99a1,1,0,1,0,1,1,1,1,0,0,0-1-1" transform="translate(380.004 240.025)" fill="#30ba78"/>
      <path id="Path_810" data-name="Path 810" d="M820,139a1,1,0,1,0,1,1,1,1,0,0,0-1-1" transform="translate(380.007 239.934)" fill="#30ba78"/>
      <path id="Path_811" data-name="Path 811" d="M820,99a1,1,0,1,0,1,1,1,1,0,0,0-1-1" transform="translate(380.007 240.025)" fill="#30ba78"/>
      <path id="Path_812" data-name="Path 812" d="M840,119a1,1,0,1,0,1,1,1,1,0,0,0-1-1" transform="translate(380.005 239.98)" fill="#30ba78"/>
      <path id="Path_813" data-name="Path 813" d="M820,79a1,1,0,1,0,1,1,1,1,0,0,0-1-1" transform="translate(380.007 240.07)" fill="#30ba78"/>
      <path id="Path_814" data-name="Path 814" d="M820,199a1,1,0,1,0,1,1,1,1,0,0,0-1-1" transform="translate(380.007 239.798)" fill="#30ba78"/>
      <path id="Path_815" data-name="Path 815" d="M820,59a1,1,0,1,0,1,1,1,1,0,0,0-1-1" transform="translate(380.007 240.116)" fill="#30ba78"/>
      <path id="Path_816" data-name="Path 816" d="M820,159a1,1,0,1,0,1,1,1,1,0,0,0-1-1" transform="translate(380.007 239.889)" fill="#30ba78"/>
      <path id="Path_817" data-name="Path 817" d="M820,179a1,1,0,1,0,1,1,1,1,0,0,0-1-1" transform="translate(380.007 239.844)" fill="#30ba78"/>
      <path id="Path_818" data-name="Path 818" d="M820,119a1,1,0,1,0,1,1,1,1,0,0,0-1-1" transform="translate(380.007 239.98)" fill="#30ba78"/>
      <path id="Path_819" data-name="Path 819" d="M840,159a1,1,0,1,0,1,1,1,1,0,0,0-1-1" transform="translate(380.005 239.889)" fill="#30ba78"/>
      <path id="Path_820" data-name="Path 820" d="M840,199a1,1,0,1,0,1,1,1,1,0,0,0-1-1" transform="translate(380.005 239.798)" fill="#30ba78"/>
      <path id="Path_822" data-name="Path 822" d="M840,139a1,1,0,1,0,1,1,1,1,0,0,0-1-1" transform="translate(380.005 239.934)" fill="#30ba78"/>
      <path id="Path_823" data-name="Path 823" d="M820,39a1,1,0,1,0,1,1,1,1,0,0,0-1-1" transform="translate(380.007 240.161)" fill="#30ba78"/>
      <path id="Path_825" data-name="Path 825" d="M820,19a1,1,0,1,0,1,1,1,1,0,0,0-1-1" transform="translate(380.007 240.206)" fill="#30ba78"/>
      <path id="Path_827" data-name="Path 827" d="M840,179a1,1,0,1,0,1,1,1,1,0,0,0-1-1" transform="translate(380.005 239.844)" fill="#30ba78"/>
      <path id="Path_833" data-name="Path 833" d="M900,79a1,1,0,1,0,1,1,1,1,0,0,0-1-1" transform="translate(380.001 240.07)" fill="#30ba78"/>
      <path id="Path_834" data-name="Path 834" d="M900,19a1,1,0,1,0,1,1,1,1,0,0,0-1-1" transform="translate(380.001 240.206)" fill="#30ba78"/>
      <path id="Path_835" data-name="Path 835" d="M900,39a1,1,0,1,0,1,1,1,1,0,0,0-1-1" transform="translate(380.001 240.161)" fill="#30ba78"/>
      <path id="Path_836" data-name="Path 836" d="M900,59a1,1,0,1,0,1,1,1,1,0,0,0-1-1" transform="translate(380.001 240.116)" fill="#30ba78"/>
      <path id="Path_845" data-name="Path 845" d="M880,159a1,1,0,1,0,1,1,1,1,0,0,0-1-1" transform="translate(380.003 239.889)" fill="#30ba78"/>
      <path id="Path_846" data-name="Path 846" d="M880,99a1,1,0,1,0,1,1,1,1,0,0,0-1-1" transform="translate(380.003 240.025)" fill="#30ba78"/>
      <path id="Path_847" data-name="Path 847" d="M880,119a1,1,0,1,0,1,1,1,1,0,0,0-1-1" transform="translate(380.003 239.98)" fill="#30ba78"/>
      <path id="Path_848" data-name="Path 848" d="M880,79a1,1,0,1,0,1,1,1,1,0,0,0-1-1" transform="translate(380.003 240.07)" fill="#30ba78"/>
      <path id="Path_849" data-name="Path 849" d="M900,99a1,1,0,1,0,1,1,1,1,0,0,0-1-1" transform="translate(380.001 240.025)" fill="#30ba78"/>
      <path id="Path_850" data-name="Path 850" d="M880,39a1,1,0,1,0,1,1,1,1,0,0,0-1-1" transform="translate(380.003 240.161)" fill="#30ba78"/>
      <path id="Path_851" data-name="Path 851" d="M880,139a1,1,0,1,0,1,1,1,1,0,0,0-1-1" transform="translate(380.003 239.934)" fill="#30ba78"/>
      <path id="Path_852" data-name="Path 852" d="M880,179a1,1,0,1,0,1,1,1,1,0,0,0-1-1" transform="translate(380.003 239.844)" fill="#30ba78"/>
      <path id="Path_853" data-name="Path 853" d="M880,199a1,1,0,1,0,1,1,1,1,0,0,0-1-1" transform="translate(380.003 239.798)" fill="#30ba78"/>
      <path id="Path_854" data-name="Path 854" d="M880,59a1,1,0,1,0,1,1,1,1,0,0,0-1-1" transform="translate(380.003 240.116)" fill="#30ba78"/>
      <path id="Path_855" data-name="Path 855" d="M900,139a1,1,0,1,0,1,1,1,1,0,0,0-1-1" transform="translate(380.001 239.934)" fill="#30ba78"/>
      <path id="Path_856" data-name="Path 856" d="M900,179a1,1,0,1,0,1,1,1,1,0,0,0-1-1" transform="translate(380.001 239.844)" fill="#30ba78"/>
      <path id="Path_857" data-name="Path 857" d="M880,19a1,1,0,1,0,1,1,1,1,0,0,0-1-1" transform="translate(380.003 240.206)" fill="#30ba78"/>
      <path id="Path_858" data-name="Path 858" d="M900,119a1,1,0,1,0,1,1,1,1,0,0,0-1-1" transform="translate(380.001 239.98)" fill="#30ba78"/>
      <path id="Path_859" data-name="Path 859" d="M900,159a1,1,0,1,0,1,1,1,1,0,0,0-1-1" transform="translate(380.001 239.889)" fill="#30ba78"/>
      <path id="Path_862" data-name="Path 862" d="M900,199a1,1,0,1,0,1,1,1,1,0,0,0-1-1" transform="translate(380.001 239.798)" fill="#30ba78"/>
      <path id="Path_864" data-name="Path 864" d="M720,179a1,1,0,1,0,1,1,1,1,0,0,0-1-1" transform="translate(380.014 239.844)" fill="#30ba78"/>
      <path id="Path_865" data-name="Path 865" d="M720,99a1,1,0,1,0,1,1,1,1,0,0,0-1-1" transform="translate(380.014 240.025)" fill="#30ba78"/>
      <path id="Path_866" data-name="Path 866" d="M720,159a1,1,0,1,0,1,1,1,1,0,0,0-1-1" transform="translate(380.014 239.889)" fill="#30ba78"/>
      <path id="Path_867" data-name="Path 867" d="M720,119a1,1,0,1,0,1,1,1,1,0,0,0-1-1" transform="translate(380.014 239.98)" fill="#30ba78"/>
      <path id="Path_868" data-name="Path 868" d="M720,139a1,1,0,1,0,1,1,1,1,0,0,0-1-1" transform="translate(380.014 239.934)" fill="#30ba78"/>
      <path id="Path_871" data-name="Path 871" d="M700,19a1,1,0,1,0,1,1,1,1,0,0,0-1-1" transform="translate(380.015 240.206)" fill="#30ba78"/>
      <path id="Path_874" data-name="Path 874" d="M740,199a1,1,0,1,0,1,1,1,1,0,0,0-1-1" transform="translate(380.013 239.798)" fill="#30ba78"/>
      <path id="Path_876" data-name="Path 876" d="M720,79a1,1,0,1,0,1,1,1,1,0,0,0-1-1" transform="translate(380.014 240.07)" fill="#30ba78"/>
      <path id="Path_877" data-name="Path 877" d="M740,179a1,1,0,1,0,1,1,1,1,0,0,0-1-1" transform="translate(380.013 239.844)" fill="#30ba78"/>
      <path id="Path_878" data-name="Path 878" d="M720,59a1,1,0,1,0,1,1,1,1,0,0,0-1-1" transform="translate(380.014 240.116)" fill="#30ba78"/>
      <path id="Path_879" data-name="Path 879" d="M720,39a1,1,0,1,0,1,1,1,1,0,0,0-1-1" transform="translate(380.014 240.161)" fill="#30ba78"/>
      <path id="Path_880" data-name="Path 880" d="M720,19a1,1,0,1,0,1,1,1,1,0,0,0-1-1" transform="translate(380.014 240.206)" fill="#30ba78"/>
      <path id="Path_881" data-name="Path 881" d="M700,119a1,1,0,1,0,1,1,1,1,0,0,0-1-1" transform="translate(380.015 239.98)" fill="#30ba78"/>
      <path id="Path_882" data-name="Path 882" d="M680,19a1,1,0,1,0,1,1,1,1,0,0,0-1-1" transform="translate(380.017 240.206)" fill="#30ba78"/>
      <path id="Path_883" data-name="Path 883" d="M680,39a1,1,0,1,0,1,1,1,1,0,0,0-1-1" transform="translate(380.017 240.161)" fill="#30ba78"/>
      <path id="Path_885" data-name="Path 885" d="M680,59a1,1,0,1,0,1,1,1,1,0,0,0-1-1" transform="translate(380.017 240.116)" fill="#30ba78"/>
      <path id="Path_887" data-name="Path 887" d="M680,119a1,1,0,1,0,1,1,1,1,0,0,0-1-1" transform="translate(380.017 239.98)" fill="#30ba78"/>
      <path id="Path_888" data-name="Path 888" d="M680,99a1,1,0,1,0,1,1,1,1,0,0,0-1-1" transform="translate(380.017 240.025)" fill="#30ba78"/>
      <path id="Path_889" data-name="Path 889" d="M680,79a1,1,0,1,0,1,1,1,1,0,0,0-1-1" transform="translate(380.017 240.07)" fill="#30ba78"/>
      <path id="Path_890" data-name="Path 890" d="M700,79a1,1,0,1,0,1,1,1,1,0,0,0-1-1" transform="translate(380.015 240.07)" fill="#30ba78"/>
      <path id="Path_891" data-name="Path 891" d="M700,199a1,1,0,1,0,1,1,1,1,0,0,0-1-1" transform="translate(380.015 239.798)" fill="#30ba78"/>
      <path id="Path_892" data-name="Path 892" d="M700,39a1,1,0,1,0,1,1,1,1,0,0,0-1-1" transform="translate(380.015 240.161)" fill="#30ba78"/>
      <path id="Path_893" data-name="Path 893" d="M700,59a1,1,0,1,0,1,1,1,1,0,0,0-1-1" transform="translate(380.015 240.116)" fill="#30ba78"/>
      <path id="Path_894" data-name="Path 894" d="M740,159a1,1,0,1,0,1,1,1,1,0,0,0-1-1" transform="translate(380.013 239.889)" fill="#30ba78"/>
      <path id="Path_895" data-name="Path 895" d="M700,99a1,1,0,1,0,1,1,1,1,0,0,0-1-1" transform="translate(380.015 240.025)" fill="#30ba78"/>
      <path id="Path_896" data-name="Path 896" d="M700,179a1,1,0,1,0,1,1,1,1,0,0,0-1-1" transform="translate(380.015 239.844)" fill="#30ba78"/>
      <path id="Path_897" data-name="Path 897" d="M700,159a1,1,0,1,0,1,1,1,1,0,0,0-1-1" transform="translate(380.015 239.889)" fill="#30ba78"/>
      <path id="Path_898" data-name="Path 898" d="M700,139a1,1,0,1,0,1,1,1,1,0,0,0-1-1" transform="translate(380.015 239.934)" fill="#30ba78"/>
      <path id="Path_899" data-name="Path 899" d="M720,199a1,1,0,1,0,1,1,1,1,0,0,0-1-1" transform="translate(380.014 239.798)" fill="#30ba78"/>
      <path id="Path_900" data-name="Path 900" d="M780,179a1,1,0,1,0,1,1,1,1,0,0,0-1-1" transform="translate(380.01 239.844)" fill="#30ba78"/>
      <path id="Path_901" data-name="Path 901" d="M780,119a1,1,0,1,0,1,1,1,1,0,0,0-1-1" transform="translate(380.01 239.98)" fill="#30ba78"/>
      <path id="Path_902" data-name="Path 902" d="M780,139a1,1,0,1,0,1,1,1,1,0,0,0-1-1" transform="translate(380.01 239.934)" fill="#30ba78"/>
      <path id="Path_903" data-name="Path 903" d="M780,199a1,1,0,1,0,1,1,1,1,0,0,0-1-1" transform="translate(380.01 239.798)" fill="#30ba78"/>
      <path id="Path_904" data-name="Path 904" d="M780,159a1,1,0,1,0,1,1,1,1,0,0,0-1-1" transform="translate(380.01 239.889)" fill="#30ba78"/>
      <path id="Path_906" data-name="Path 906" d="M760,19a1,1,0,1,0,1,1,1,1,0,0,0-1-1" transform="translate(380.011 240.206)" fill="#30ba78"/>
      <path id="Path_908" data-name="Path 908" d="M780,79a1,1,0,1,0,1,1,1,1,0,0,0-1-1" transform="translate(380.01 240.07)" fill="#30ba78"/>
      <path id="Path_909" data-name="Path 909" d="M780,99a1,1,0,1,0,1,1,1,1,0,0,0-1-1" transform="translate(380.01 240.025)" fill="#30ba78"/>
      <path id="Path_910" data-name="Path 910" d="M799.9,201.2a1,1,0,1,0-1-1,1,1,0,0,0,1,1" transform="translate(380.008 239.798)" fill="#30ba78"/>
      <path id="Path_911" data-name="Path 911" d="M780,19a1,1,0,1,0,1,1,1,1,0,0,0-1-1" transform="translate(380.01 240.206)" fill="#30ba78"/>
      <path id="Path_912" data-name="Path 912" d="M680,139a1,1,0,1,0,1,1,1,1,0,0,0-1-1" transform="translate(380.017 239.934)" fill="#30ba78"/>
      <path id="Path_914" data-name="Path 914" d="M760,39a1,1,0,1,0,1,1,1,1,0,0,0-1-1" transform="translate(380.011 240.161)" fill="#30ba78"/>
      <path id="Path_915" data-name="Path 915" d="M780,39a1,1,0,1,0,1,1,1,1,0,0,0-1-1" transform="translate(380.01 240.161)" fill="#30ba78"/>
      <path id="Path_916" data-name="Path 916" d="M780,59a1,1,0,1,0,1,1,1,1,0,0,0-1-1" transform="translate(380.01 240.116)" fill="#30ba78"/>
      <path id="Path_917" data-name="Path 917" d="M740,59a1,1,0,1,0,1,1,1,1,0,0,0-1-1" transform="translate(380.013 240.116)" fill="#30ba78"/>
      <path id="Path_918" data-name="Path 918" d="M740,139a1,1,0,1,0,1,1,1,1,0,0,0-1-1" transform="translate(380.013 239.934)" fill="#30ba78"/>
      <path id="Path_919" data-name="Path 919" d="M740,39a1,1,0,1,0,1,1,1,1,0,0,0-1-1" transform="translate(380.013 240.161)" fill="#30ba78"/>
      <path id="Path_920" data-name="Path 920" d="M740,19a1,1,0,1,0,1,1,1,1,0,0,0-1-1" transform="translate(380.013 240.206)" fill="#30ba78"/>
      <path id="Path_921" data-name="Path 921" d="M740,79a1,1,0,1,0,1,1,1,1,0,0,0-1-1" transform="translate(380.013 240.07)" fill="#30ba78"/>
      <path id="Path_922" data-name="Path 922" d="M740,99a1,1,0,1,0,1,1,1,1,0,0,0-1-1" transform="translate(380.013 240.025)" fill="#30ba78"/>
      <path id="Path_923" data-name="Path 923" d="M760,59a1,1,0,1,0,1,1,1,1,0,0,0-1-1" transform="translate(380.011 240.116)" fill="#30ba78"/>
      <path id="Path_925" data-name="Path 925" d="M740,119a1,1,0,1,0,1,1,1,1,0,0,0-1-1" transform="translate(380.013 239.98)" fill="#30ba78"/>
      <path id="Path_926" data-name="Path 926" d="M760,79a1,1,0,1,0,1,1,1,1,0,0,0-1-1" transform="translate(380.011 240.07)" fill="#30ba78"/>
      <path id="Path_928" data-name="Path 928" d="M760,139a1,1,0,1,0,1,1,1,1,0,0,0-1-1" transform="translate(380.011 239.934)" fill="#30ba78"/>
      <path id="Path_929" data-name="Path 929" d="M760,99a1,1,0,1,0,1,1,1,1,0,0,0-1-1" transform="translate(380.011 240.025)" fill="#30ba78"/>
      <path id="Path_930" data-name="Path 930" d="M760,119a1,1,0,1,0,1,1,1,1,0,0,0-1-1" transform="translate(380.011 239.98)" fill="#30ba78"/>
      <path id="Path_931" data-name="Path 931" d="M760,159a1,1,0,1,0,1,1,1,1,0,0,0-1-1" transform="translate(380.011 239.889)" fill="#30ba78"/>
      <path id="Path_932" data-name="Path 932" d="M760,179a1,1,0,1,0,1,1,1,1,0,0,0-1-1" transform="translate(380.011 239.844)" fill="#30ba78"/>
      <path id="Path_933" data-name="Path 933" d="M760,199a1,1,0,1,0,1,1,1,1,0,0,0-1-1" transform="translate(380.011 239.798)" fill="#30ba78"/>
      <path id="Path_934" data-name="Path 934" d="M120,39a1,1,0,1,0,1,1,1,1,0,0,0-1-1" transform="translate(380.055 240.161)" fill="#30ba78"/>
      <path id="Path_935" data-name="Path 935" d="M120,79a1,1,0,1,0,1,1,1,1,0,0,0-1-1" transform="translate(380.055 240.07)" fill="#30ba78"/>
      <path id="Path_936" data-name="Path 936" d="M120,159a1,1,0,1,0,1,1,1,1,0,0,0-1-1" transform="translate(380.055 239.889)" fill="#30ba78"/>
      <path id="Path_937" data-name="Path 937" d="M120,59a1,1,0,1,0,1,1,1,1,0,0,0-1-1" transform="translate(380.055 240.116)" fill="#30ba78"/>
      <path id="Path_938" data-name="Path 938" d="M120,139a1,1,0,1,0,1,1,1,1,0,0,0-1-1" transform="translate(380.055 239.934)" fill="#30ba78"/>
      <path id="Path_939" data-name="Path 939" d="M120,119a1,1,0,1,0,1,1,1,1,0,0,0-1-1" transform="translate(380.055 239.98)" fill="#30ba78"/>
      <path id="Path_940" data-name="Path 940" d="M120,99a1,1,0,1,0,1,1,1,1,0,0,0-1-1" transform="translate(380.055 240.025)" fill="#30ba78"/>
      <path id="Path_941" data-name="Path 941" d="M120,179a1,1,0,1,0,1,1,1,1,0,0,0-1-1" transform="translate(380.055 239.844)" fill="#30ba78"/>
      <path id="Path_942" data-name="Path 942" d="M140,159a1,1,0,1,0,1,1,1,1,0,0,0-1-1" transform="translate(380.053 239.889)" fill="#30ba78"/>
      <path id="Path_943" data-name="Path 943" d="M140,179a1,1,0,1,0,1,1,1,1,0,0,0-1-1" transform="translate(380.053 239.844)" fill="#30ba78"/>
      <path id="Path_944" data-name="Path 944" d="M140,119a1,1,0,1,0,1,1,1,1,0,0,0-1-1" transform="translate(380.053 239.98)" fill="#30ba78"/>
      <path id="Path_947" data-name="Path 947" d="M140,199a1,1,0,1,0,1,1,1,1,0,0,0-1-1" transform="translate(380.053 239.798)" fill="#30ba78"/>
      <path id="Path_948" data-name="Path 948" d="M120,19a1,1,0,1,0,1,1,1,1,0,0,0-1-1" transform="translate(380.055 240.206)" fill="#30ba78"/>
      <path id="Path_949" data-name="Path 949" d="M140,139a1,1,0,1,0,1,1,1,1,0,0,0-1-1" transform="translate(380.053 239.934)" fill="#30ba78"/>
      <path id="Path_950" data-name="Path 950" d="M100,119a1,1,0,1,0,1,1,1,1,0,0,0-1-1" transform="translate(380.056 239.98)" fill="#30ba78"/>
      <path id="Path_951" data-name="Path 951" d="M100,159a1,1,0,1,0,1,1,1,1,0,0,0-1-1" transform="translate(380.056 239.889)" fill="#30ba78"/>
      <path id="Path_952" data-name="Path 952" d="M100,199a1,1,0,1,0,1,1,1,1,0,0,0-1-1" transform="translate(380.056 239.798)" fill="#30ba78"/>
      <path id="Path_953" data-name="Path 953" d="M100,139a1,1,0,1,0,1,1,1,1,0,0,0-1-1" transform="translate(380.056 239.934)" fill="#30ba78"/>
      <path id="Path_954" data-name="Path 954" d="M100,179a1,1,0,1,0,1,1,1,1,0,0,0-1-1" transform="translate(380.056 239.844)" fill="#30ba78"/>
      <path id="Path_955" data-name="Path 955" d="M80,19a1,1,0,1,0,1,1,1,1,0,0,0-1-1" transform="translate(380.058 240.206)" fill="#30ba78"/>
      <path id="Path_957" data-name="Path 957" d="M120,199a1,1,0,1,0,1,1,1,1,0,0,0-1-1" transform="translate(380.055 239.798)" fill="#30ba78"/>
      <path id="Path_961" data-name="Path 961" d="M100,19a1,1,0,1,0,1,1,1,1,0,0,0-1-1" transform="translate(380.056 240.206)" fill="#30ba78"/>
      <path id="Path_962" data-name="Path 962" d="M100,59a1,1,0,1,0,1,1,1,1,0,0,0-1-1" transform="translate(380.056 240.116)" fill="#30ba78"/>
      <path id="Path_963" data-name="Path 963" d="M140,99a1,1,0,1,0,1,1,1,1,0,0,0-1-1" transform="translate(380.053 240.025)" fill="#30ba78"/>
      <path id="Path_964" data-name="Path 964" d="M100,39a1,1,0,1,0,1,1,1,1,0,0,0-1-1" transform="translate(380.056 240.161)" fill="#30ba78"/>
      <path id="Path_965" data-name="Path 965" d="M100,99a1,1,0,1,0,1,1,1,1,0,0,0-1-1" transform="translate(380.056 240.025)" fill="#30ba78"/>
      <path id="Path_966" data-name="Path 966" d="M100,79a1,1,0,1,0,1,1,1,1,0,0,0-1-1" transform="translate(380.056 240.07)" fill="#30ba78"/>
      <path id="Path_967" data-name="Path 967" d="M180,99a1,1,0,1,0,1,1,1,1,0,0,0-1-1" transform="translate(380.051 240.025)" fill="#30ba78"/>
      <path id="Path_968" data-name="Path 968" d="M180,119a1,1,0,1,0,1,1,1,1,0,0,0-1-1" transform="translate(380.051 239.98)" fill="#30ba78"/>
      <path id="Path_969" data-name="Path 969" d="M180,59a1,1,0,1,0,1,1,1,1,0,0,0-1-1" transform="translate(380.051 240.116)" fill="#30ba78"/>
      <path id="Path_970" data-name="Path 970" d="M180,139a1,1,0,1,0,1,1,1,1,0,0,0-1-1" transform="translate(380.051 239.934)" fill="#30ba78"/>
      <path id="Path_971" data-name="Path 971" d="M180,79a1,1,0,1,0,1,1,1,1,0,0,0-1-1" transform="translate(380.051 240.07)" fill="#30ba78"/>
      <path id="Path_972" data-name="Path 972" d="M180,199a1,1,0,1,0,1,1,1,1,0,0,0-1-1" transform="translate(380.051 239.798)" fill="#30ba78"/>
      <path id="Path_973" data-name="Path 973" d="M180,159a1,1,0,1,0,1,1,1,1,0,0,0-1-1" transform="translate(380.051 239.889)" fill="#30ba78"/>
      <path id="Path_974" data-name="Path 974" d="M180,179a1,1,0,1,0,1,1,1,1,0,0,0-1-1" transform="translate(380.051 239.844)" fill="#30ba78"/>
      <path id="Path_975" data-name="Path 975" d="M80,39a1,1,0,1,0,1,1,1,1,0,0,0-1-1" transform="translate(380.058 240.161)" fill="#30ba78"/>
      <path id="Path_976" data-name="Path 976" d="M200,179a1,1,0,1,0,1,1,1,1,0,0,0-1-1" transform="translate(380.049 239.844)" fill="#30ba78"/>
      <path id="Path_977" data-name="Path 977" d="M200,159a1,1,0,1,0,1,1,1,1,0,0,0-1-1" transform="translate(380.049 239.889)" fill="#30ba78"/>
      <path id="Path_979" data-name="Path 979" d="M180,39a1,1,0,1,0,1,1,1,1,0,0,0-1-1" transform="translate(380.051 240.161)" fill="#30ba78"/>
      <path id="Path_982" data-name="Path 982" d="M140,79a1,1,0,1,0,1,1,1,1,0,0,0-1-1" transform="translate(380.053 240.07)" fill="#30ba78"/>
      <path id="Path_983" data-name="Path 983" d="M200,199a1,1,0,1,0,1,1,1,1,0,0,0-1-1" transform="translate(380.049 239.798)" fill="#30ba78"/>
      <path id="Path_984" data-name="Path 984" d="M160,159a1,1,0,1,0,1,1,1,1,0,0,0-1-1" transform="translate(380.052 239.889)" fill="#30ba78"/>
      <path id="Path_987" data-name="Path 987" d="M160,179a1,1,0,1,0,1,1,1,1,0,0,0-1-1" transform="translate(380.052 239.844)" fill="#30ba78"/>
      <path id="Path_988" data-name="Path 988" d="M160,199a1,1,0,1,0,1,1,1,1,0,0,0-1-1" transform="translate(380.052 239.798)" fill="#30ba78"/>
      <path id="Path_989" data-name="Path 989" d="M140,19a1,1,0,1,0,1,1,1,1,0,0,0-1-1" transform="translate(380.053 240.206)" fill="#30ba78"/>
      <path id="Path_991" data-name="Path 991" d="M140,39a1,1,0,1,0,1,1,1,1,0,0,0-1-1" transform="translate(380.053 240.161)" fill="#30ba78"/>
      <path id="Path_992" data-name="Path 992" d="M140,59a1,1,0,1,0,1,1,1,1,0,0,0-1-1" transform="translate(380.053 240.116)" fill="#30ba78"/>
      <path id="Path_993" data-name="Path 993" d="M160,39a1,1,0,1,0,1,1,1,1,0,0,0-1-1" transform="translate(380.052 240.161)" fill="#30ba78"/>
      <path id="Path_994" data-name="Path 994" d="M160,19a1,1,0,1,0,1,1,1,1,0,0,0-1-1" transform="translate(380.052 240.206)" fill="#30ba78"/>
      <path id="Path_995" data-name="Path 995" d="M160,59a1,1,0,1,0,1,1,1,1,0,0,0-1-1" transform="translate(380.052 240.116)" fill="#30ba78"/>
      <path id="Path_996" data-name="Path 996" d="M160,139a1,1,0,1,0,1,1,1,1,0,0,0-1-1" transform="translate(380.052 239.934)" fill="#30ba78"/>
      <path id="Path_997" data-name="Path 997" d="M160,119a1,1,0,1,0,1,1,1,1,0,0,0-1-1" transform="translate(380.052 239.98)" fill="#30ba78"/>
      <path id="Path_998" data-name="Path 998" d="M160,79a1,1,0,1,0,1,1,1,1,0,0,0-1-1" transform="translate(380.052 240.07)" fill="#30ba78"/>
      <path id="Path_999" data-name="Path 999" d="M160,99a1,1,0,1,0,1,1,1,1,0,0,0-1-1" transform="translate(380.052 240.025)" fill="#30ba78"/>
      <path id="Path_1000" data-name="Path 1000" d="M339.9,161.2a1,1,0,1,0-1-1,1,1,0,0,0,1,1" transform="translate(380.04 239.888)" fill="#30ba78"/>
      <path id="Path_1002" data-name="Path 1002" d="M20,199a1,1,0,1,0,1,1,1,1,0,0,0-1-1" transform="translate(380.062 239.798)" fill="#30ba78"/>
      <path id="Path_1004" data-name="Path 1004" d="M20,179a1,1,0,1,0,1,1,1,1,0,0,0-1-1" transform="translate(380.062 239.844)" fill="#30ba78"/>
      <path id="Path_1007" data-name="Path 1007" d="M20,159a1,1,0,1,0,1,1,1,1,0,0,0-1-1" transform="translate(380.062 239.889)" fill="#30ba78"/>
      <path id="Path_1009" data-name="Path 1009" d="M20,19a1,1,0,1,0,1,1,1,1,0,0,0-1-1" transform="translate(380.062 240.206)" fill="#30ba78"/>
      <path id="Path_1010" data-name="Path 1010" d="M20,39a1,1,0,1,0,1,1,1,1,0,0,0-1-1" transform="translate(380.062 240.161)" fill="#30ba78"/>
      <path id="Path_1011" data-name="Path 1011" d="M20,59a1,1,0,1,0,1,1,1,1,0,0,0-1-1" transform="translate(380.062 240.116)" fill="#30ba78"/>
      <path id="Path_1013" data-name="Path 1013" d="M20,119a1,1,0,1,0,1,1,1,1,0,0,0-1-1" transform="translate(380.062 239.98)" fill="#30ba78"/>
      <path id="Path_1014" data-name="Path 1014" d="M20,79a1,1,0,1,0,1,1,1,1,0,0,0-1-1" transform="translate(380.062 240.07)" fill="#30ba78"/>
      <path id="Path_1015" data-name="Path 1015" d="M20,139a1,1,0,1,0,1,1,1,1,0,0,0-1-1" transform="translate(380.062 239.934)" fill="#30ba78"/>
      <path id="Path_1016" data-name="Path 1016" d="M20,99a1,1,0,1,0,1,1,1,1,0,0,0-1-1" transform="translate(380.062 240.025)" fill="#30ba78"/>
      <path id="Path_1017" data-name="Path 1017" d="M339.9,121.2a1,1,0,1,0-1-1,1,1,0,0,0,1,1" transform="translate(380.04 239.979)" fill="#30ba78"/>
      <path id="Path_1019" data-name="Path 1019" d="M339.9,101.2a1,1,0,1,0-1-1,1,1,0,0,0,1,1" transform="translate(380.04 240.025)" fill="#30ba78"/>
      <path id="Path_1020" data-name="Path 1020" d="M339.9,141.2a1,1,0,1,0-1-1,1,1,0,0,0,1,1" transform="translate(380.04 239.934)" fill="#30ba78"/>
      <path id="Path_1021" data-name="Path 1021" d="M200,139a1,1,0,1,0,1,1,1,1,0,0,0-1-1" transform="translate(380.049 239.934)" fill="#30ba78"/>
      <path id="Path_1022" data-name="Path 1022" d="M339.9,81.2a1,1,0,1,0-1-1,1,1,0,0,0,1,1" transform="translate(380.04 240.07)" fill="#30ba78"/>
      <path id="Path_1023" data-name="Path 1023" d="M339.9,41.2a1,1,0,1,0-1-1,1,1,0,0,0,1,1" transform="translate(380.04 240.161)" fill="#30ba78"/>
      <path id="Path_1024" data-name="Path 1024" d="M339.9,21.2a1,1,0,1,0-1-1,1,1,0,0,0,1,1" transform="translate(380.04 240.206)" fill="#30ba78"/>
      <path id="Path_1025" data-name="Path 1025" d="M339.9,61.2a1,1,0,1,0-1-1,1,1,0,0,0,1,1" transform="translate(380.04 240.115)" fill="#30ba78"/>
      <path id="Path_1029" data-name="Path 1029" d="M339.9,181.2a1,1,0,1,0-1-1,1,1,0,0,0,1,1" transform="translate(380.04 239.843)" fill="#30ba78"/>
      <path id="Path_1034" data-name="Path 1034" d="M80,119a1,1,0,1,0,1,1,1,1,0,0,0-1-1" transform="translate(380.058 239.98)" fill="#30ba78"/>
      <path id="Path_1035" data-name="Path 1035" d="M60,59a1,1,0,1,0,1,1,1,1,0,0,0-1-1" transform="translate(380.059 240.116)" fill="#30ba78"/>
      <path id="Path_1036" data-name="Path 1036" d="M60,39a1,1,0,1,0,1,1,1,1,0,0,0-1-1" transform="translate(380.059 240.161)" fill="#30ba78"/>
      <path id="Path_1037" data-name="Path 1037" d="M60,19a1,1,0,1,0,1,1,1,1,0,0,0-1-1" transform="translate(380.059 240.206)" fill="#30ba78"/>
      <path id="Path_1039" data-name="Path 1039" d="M60,79a1,1,0,1,0,1,1,1,1,0,0,0-1-1" transform="translate(380.059 240.07)" fill="#30ba78"/>
      <path id="Path_1041" data-name="Path 1041" d="M60,139a1,1,0,1,0,1,1,1,1,0,0,0-1-1" transform="translate(380.059 239.934)" fill="#30ba78"/>
      <path id="Path_1042" data-name="Path 1042" d="M60,99a1,1,0,1,0,1,1,1,1,0,0,0-1-1" transform="translate(380.059 240.025)" fill="#30ba78"/>
      <path id="Path_1044" data-name="Path 1044" d="M80,59a1,1,0,1,0,1,1,1,1,0,0,0-1-1" transform="translate(380.058 240.116)" fill="#30ba78"/>
      <path id="Path_1045" data-name="Path 1045" d="M80,99a1,1,0,1,0,1,1,1,1,0,0,0-1-1" transform="translate(380.058 240.025)" fill="#30ba78"/>
      <path id="Path_1046" data-name="Path 1046" d="M80,79a1,1,0,1,0,1,1,1,1,0,0,0-1-1" transform="translate(380.058 240.07)" fill="#30ba78"/>
      <path id="Path_1047" data-name="Path 1047" d="M80,139a1,1,0,1,0,1,1,1,1,0,0,0-1-1" transform="translate(380.058 239.934)" fill="#30ba78"/>
      <path id="Path_1048" data-name="Path 1048" d="M80,179a1,1,0,1,0,1,1,1,1,0,0,0-1-1" transform="translate(380.058 239.844)" fill="#30ba78"/>
      <path id="Path_1049" data-name="Path 1049" d="M80,159a1,1,0,1,0,1,1,1,1,0,0,0-1-1" transform="translate(380.058 239.889)" fill="#30ba78"/>
      <path id="Path_1050" data-name="Path 1050" d="M80,199a1,1,0,1,0,1,1,1,1,0,0,0-1-1" transform="translate(380.058 239.798)" fill="#30ba78"/>
      <path id="Path_1051" data-name="Path 1051" d="M60,119a1,1,0,1,0,1,1,1,1,0,0,0-1-1" transform="translate(380.059 239.98)" fill="#30ba78"/>
      <path id="Path_1052" data-name="Path 1052" d="M40,119a1,1,0,1,0,1,1,1,1,0,0,0-1-1" transform="translate(380.06 239.98)" fill="#30ba78"/>
      <path id="Path_1053" data-name="Path 1053" d="M40,139a1,1,0,1,0,1,1,1,1,0,0,0-1-1" transform="translate(380.06 239.934)" fill="#30ba78"/>
      <path id="Path_1054" data-name="Path 1054" d="M40,99a1,1,0,1,0,1,1,1,1,0,0,0-1-1" transform="translate(380.06 240.025)" fill="#30ba78"/>
      <path id="Path_1055" data-name="Path 1055" d="M60,159a1,1,0,1,0,1,1,1,1,0,0,0-1-1" transform="translate(380.059 239.889)" fill="#30ba78"/>
      <path id="Path_1056" data-name="Path 1056" d="M40,159a1,1,0,1,0,1,1,1,1,0,0,0-1-1" transform="translate(380.06 239.889)" fill="#30ba78"/>
      <path id="Path_1057" data-name="Path 1057" d="M40,79a1,1,0,1,0,1,1,1,1,0,0,0-1-1" transform="translate(380.06 240.07)" fill="#30ba78"/>
      <path id="Path_1058" data-name="Path 1058" d="M40,179a1,1,0,1,0,1,1,1,1,0,0,0-1-1" transform="translate(380.06 239.844)" fill="#30ba78"/>
      <path id="Path_1059" data-name="Path 1059" d="M40,199a1,1,0,1,0,1,1,1,1,0,0,0-1-1" transform="translate(380.06 239.798)" fill="#30ba78"/>
      <path id="Path_1060" data-name="Path 1060" d="M40,59a1,1,0,1,0,1,1,1,1,0,0,0-1-1" transform="translate(380.06 240.116)" fill="#30ba78"/>
      <path id="Path_1062" data-name="Path 1062" d="M60,179a1,1,0,1,0,1,1,1,1,0,0,0-1-1" transform="translate(380.059 239.844)" fill="#30ba78"/>
      <path id="Path_1063" data-name="Path 1063" d="M60,199a1,1,0,1,0,1,1,1,1,0,0,0-1-1" transform="translate(380.059 239.798)" fill="#30ba78"/>
      <path id="Path_1065" data-name="Path 1065" d="M40,39a1,1,0,1,0,1,1,1,1,0,0,0-1-1" transform="translate(380.06 240.161)" fill="#30ba78"/>
      <path id="Path_1066" data-name="Path 1066" d="M40,19a1,1,0,1,0,1,1,1,1,0,0,0-1-1" transform="translate(380.06 240.206)" fill="#30ba78"/>
      <path id="Path_1067" data-name="Path 1067" d="M180,19a1,1,0,1,0,1,1,1,1,0,0,0-1-1" transform="translate(380.051 240.206)" fill="#30ba78"/>
      <path id="Path_1068" data-name="Path 1068" d="M380,179a1,1,0,1,0,1,1,1,1,0,0,0-1-1" transform="translate(380.037 239.844)" fill="#30ba78"/>
      <path id="Path_1070" data-name="Path 1070" d="M380,139a1,1,0,1,0,1,1,1,1,0,0,0-1-1" transform="translate(380.037 239.934)" fill="#30ba78"/>
      <path id="Path_1071" data-name="Path 1071" d="M380,159a1,1,0,1,0,1,1,1,1,0,0,0-1-1" transform="translate(380.037 239.889)" fill="#30ba78"/>
      <path id="Path_1072" data-name="Path 1072" d="M320,119a1,1,0,1,0,1,1,1,1,0,0,0-1-1" transform="translate(380.041 239.98)" fill="#30ba78"/>
      <path id="Path_1074" data-name="Path 1074" d="M360,39a1,1,0,1,0,1,1,1,1,0,0,0-1-1" transform="translate(380.039 240.161)" fill="#30ba78"/>
      <path id="Path_1075" data-name="Path 1075" d="M360,19a1,1,0,1,0,1,1,1,1,0,0,0-1-1" transform="translate(380.039 240.206)" fill="#30ba78"/>
      <path id="Path_1076" data-name="Path 1076" d="M380,59a1,1,0,1,0,1,1,1,1,0,0,0-1-1" transform="translate(380.037 240.116)" fill="#30ba78"/>
      <path id="Path_1078" data-name="Path 1078" d="M380,19a1,1,0,1,0,1,1,1,1,0,0,0-1-1" transform="translate(380.037 240.206)" fill="#30ba78"/>
      <path id="Path_1079" data-name="Path 1079" d="M380,119a1,1,0,1,0,1,1,1,1,0,0,0-1-1" transform="translate(380.037 239.98)" fill="#30ba78"/>
      <path id="Path_1081" data-name="Path 1081" d="M380,39a1,1,0,1,0,1,1,1,1,0,0,0-1-1" transform="translate(380.037 240.161)" fill="#30ba78"/>
      <path id="Path_1082" data-name="Path 1082" d="M360,59a1,1,0,1,0,1,1,1,1,0,0,0-1-1" transform="translate(380.039 240.116)" fill="#30ba78"/>
      <path id="Path_1083" data-name="Path 1083" d="M380,99a1,1,0,1,0,1,1,1,1,0,0,0-1-1" transform="translate(380.037 240.025)" fill="#30ba78"/>
      <path id="Path_1084" data-name="Path 1084" d="M380,79a1,1,0,1,0,1,1,1,1,0,0,0-1-1" transform="translate(380.037 240.07)" fill="#30ba78"/>
      <path id="Path_1085" data-name="Path 1085" d="M200,119a1,1,0,1,0,1,1,1,1,0,0,0-1-1" transform="translate(380.049 239.98)" fill="#30ba78"/>
      <path id="Path_1087" data-name="Path 1087" d="M320,39a1,1,0,1,0,1,1,1,1,0,0,0-1-1" transform="translate(380.041 240.161)" fill="#30ba78"/>
      <path id="Path_1089" data-name="Path 1089" d="M339.9,201.2a1,1,0,1,0-1-1,1,1,0,0,0,1,1" transform="translate(380.04 239.798)" fill="#30ba78"/>
      <path id="Path_1090" data-name="Path 1090" d="M320,19a1,1,0,1,0,1,1,1,1,0,0,0-1-1" transform="translate(380.041 240.206)" fill="#30ba78"/>
      <path id="Path_1091" data-name="Path 1091" d="M320,59a1,1,0,1,0,1,1,1,1,0,0,0-1-1" transform="translate(380.041 240.116)" fill="#30ba78"/>
      <path id="Path_1092" data-name="Path 1092" d="M400,199a1,1,0,1,0,1,1,1,1,0,0,0-1-1" transform="translate(380.036 239.798)" fill="#30ba78"/>
      <path id="Path_1093" data-name="Path 1093" d="M320,79a1,1,0,1,0,1,1,1,1,0,0,0-1-1" transform="translate(380.041 240.07)" fill="#30ba78"/>
      <path id="Path_1094" data-name="Path 1094" d="M360,119a1,1,0,1,0,1,1,1,1,0,0,0-1-1" transform="translate(380.039 239.98)" fill="#30ba78"/>
      <path id="Path_1095" data-name="Path 1095" d="M360,159a1,1,0,1,0,1,1,1,1,0,0,0-1-1" transform="translate(380.039 239.889)" fill="#30ba78"/>
      <path id="Path_1096" data-name="Path 1096" d="M360,139a1,1,0,1,0,1,1,1,1,0,0,0-1-1" transform="translate(380.039 239.934)" fill="#30ba78"/>
      <path id="Path_1097" data-name="Path 1097" d="M360,79a1,1,0,1,0,1,1,1,1,0,0,0-1-1" transform="translate(380.039 240.07)" fill="#30ba78"/>
      <path id="Path_1098" data-name="Path 1098" d="M360,99a1,1,0,1,0,1,1,1,1,0,0,0-1-1" transform="translate(380.039 240.025)" fill="#30ba78"/>
      <path id="Path_1099" data-name="Path 1099" d="M360,199a1,1,0,1,0,1,1,1,1,0,0,0-1-1" transform="translate(380.039 239.798)" fill="#30ba78"/>
      <path id="Path_1100" data-name="Path 1100" d="M360,179a1,1,0,1,0,1,1,1,1,0,0,0-1-1" transform="translate(380.039 239.844)" fill="#30ba78"/>
      <path id="Path_1103" data-name="Path 1103" d="M380,199a1,1,0,1,0,1,1,1,1,0,0,0-1-1" transform="translate(380.037 239.798)" fill="#30ba78"/>
      <path id="Path_1104" data-name="Path 1104" d="M440,199a1,1,0,1,0,1,1,1,1,0,0,0-1-1" transform="translate(380.033 239.798)" fill="#30ba78"/>
      <path id="Path_1105" data-name="Path 1105" d="M440,179a1,1,0,1,0,1,1,1,1,0,0,0-1-1" transform="translate(380.033 239.844)" fill="#30ba78"/>
      <path id="Path_1106" data-name="Path 1106" d="M440,159a1,1,0,1,0,1,1,1,1,0,0,0-1-1" transform="translate(380.033 239.889)" fill="#30ba78"/>
      <path id="Path_1108" data-name="Path 1108" d="M420,39a1,1,0,1,0,1,1,1,1,0,0,0-1-1" transform="translate(380.034 240.161)" fill="#30ba78"/>
      <path id="Path_1109" data-name="Path 1109" d="M440,139a1,1,0,1,0,1,1,1,1,0,0,0-1-1" transform="translate(380.033 239.934)" fill="#30ba78"/>
      <path id="Path_1110" data-name="Path 1110" d="M420,19a1,1,0,1,0,1,1,1,1,0,0,0-1-1" transform="translate(380.034 240.206)" fill="#30ba78"/>
      <path id="Path_1113" data-name="Path 1113" d="M440,39a1,1,0,1,0,1,1,1,1,0,0,0-1-1" transform="translate(380.033 240.161)" fill="#30ba78"/>
      <path id="Path_1114" data-name="Path 1114" d="M440,119a1,1,0,1,0,1,1,1,1,0,0,0-1-1" transform="translate(380.033 239.98)" fill="#30ba78"/>
      <path id="Path_1116" data-name="Path 1116" d="M420,59a1,1,0,1,0,1,1,1,1,0,0,0-1-1" transform="translate(380.034 240.116)" fill="#30ba78"/>
      <path id="Path_1117" data-name="Path 1117" d="M400,179a1,1,0,1,0,1,1,1,1,0,0,0-1-1" transform="translate(380.036 239.844)" fill="#30ba78"/>
      <path id="Path_1118" data-name="Path 1118" d="M440,59a1,1,0,1,0,1,1,1,1,0,0,0-1-1" transform="translate(380.033 240.116)" fill="#30ba78"/>
      <path id="Path_1119" data-name="Path 1119" d="M440,99a1,1,0,1,0,1,1,1,1,0,0,0-1-1" transform="translate(380.033 240.025)" fill="#30ba78"/>
      <path id="Path_1120" data-name="Path 1120" d="M440,79a1,1,0,1,0,1,1,1,1,0,0,0-1-1" transform="translate(380.033 240.07)" fill="#30ba78"/>
      <path id="Path_1121" data-name="Path 1121" d="M440,19a1,1,0,1,0,1,1,1,1,0,0,0-1-1" transform="translate(380.033 240.206)" fill="#30ba78"/>
      <path id="Path_1122" data-name="Path 1122" d="M400,99a1,1,0,1,0,1,1,1,1,0,0,0-1-1" transform="translate(380.036 240.025)" fill="#30ba78"/>
      <path id="Path_1123" data-name="Path 1123" d="M400,59a1,1,0,1,0,1,1,1,1,0,0,0-1-1" transform="translate(380.036 240.116)" fill="#30ba78"/>
      <path id="Path_1124" data-name="Path 1124" d="M400,79a1,1,0,1,0,1,1,1,1,0,0,0-1-1" transform="translate(380.036 240.07)" fill="#30ba78"/>
      <path id="Path_1125" data-name="Path 1125" d="M400,19a1,1,0,1,0,1,1,1,1,0,0,0-1-1" transform="translate(380.036 240.206)" fill="#30ba78"/>
      <path id="Path_1126" data-name="Path 1126" d="M400,39a1,1,0,1,0,1,1,1,1,0,0,0-1-1" transform="translate(380.036 240.161)" fill="#30ba78"/>
      <path id="Path_1127" data-name="Path 1127" d="M400,159a1,1,0,1,0,1,1,1,1,0,0,0-1-1" transform="translate(380.036 239.889)" fill="#30ba78"/>
      <path id="Path_1128" data-name="Path 1128" d="M400,139a1,1,0,1,0,1,1,1,1,0,0,0-1-1" transform="translate(380.036 239.934)" fill="#30ba78"/>
      <path id="Path_1129" data-name="Path 1129" d="M400,119a1,1,0,1,0,1,1,1,1,0,0,0-1-1" transform="translate(380.036 239.98)" fill="#30ba78"/>
      <path id="Path_1130" data-name="Path 1130" d="M420,179a1,1,0,1,0,1,1,1,1,0,0,0-1-1" transform="translate(380.034 239.844)" fill="#30ba78"/>
      <path id="Path_1131" data-name="Path 1131" d="M420,139a1,1,0,1,0,1,1,1,1,0,0,0-1-1" transform="translate(380.034 239.934)" fill="#30ba78"/>
      <path id="Path_1132" data-name="Path 1132" d="M420,119a1,1,0,1,0,1,1,1,1,0,0,0-1-1" transform="translate(380.034 239.98)" fill="#30ba78"/>
      <path id="Path_1133" data-name="Path 1133" d="M420,99a1,1,0,1,0,1,1,1,1,0,0,0-1-1" transform="translate(380.034 240.025)" fill="#30ba78"/>
      <path id="Path_1135" data-name="Path 1135" d="M420,159a1,1,0,1,0,1,1,1,1,0,0,0-1-1" transform="translate(380.034 239.889)" fill="#30ba78"/>
      <path id="Path_1136" data-name="Path 1136" d="M420,79a1,1,0,1,0,1,1,1,1,0,0,0-1-1" transform="translate(380.034 240.07)" fill="#30ba78"/>
      <path id="Path_1138" data-name="Path 1138" d="M420,199a1,1,0,1,0,1,1,1,1,0,0,0-1-1" transform="translate(380.034 239.798)" fill="#30ba78"/>
      <path id="Path_1139" data-name="Path 1139" d="M320,99a1,1,0,1,0,1,1,1,1,0,0,0-1-1" transform="translate(380.041 240.025)" fill="#30ba78"/>
      <path id="Path_1140" data-name="Path 1140" d="M240,119a1,1,0,1,0,1,1,1,1,0,0,0-1-1" transform="translate(380.046 239.98)" fill="#30ba78"/>
      <path id="Path_1141" data-name="Path 1141" d="M240,139a1,1,0,1,0,1,1,1,1,0,0,0-1-1" transform="translate(380.046 239.934)" fill="#30ba78"/>
      <path id="Path_1142" data-name="Path 1142" d="M240,159a1,1,0,1,0,1,1,1,1,0,0,0-1-1" transform="translate(380.046 239.889)" fill="#30ba78"/>
      <path id="Path_1143" data-name="Path 1143" d="M240,99a1,1,0,1,0,1,1,1,1,0,0,0-1-1" transform="translate(380.046 240.025)" fill="#30ba78"/>
      <path id="Path_1144" data-name="Path 1144" d="M240,199a1,1,0,1,0,1,1,1,1,0,0,0-1-1" transform="translate(380.046 239.798)" fill="#30ba78"/>
      <path id="Path_1146" data-name="Path 1146" d="M240,79a1,1,0,1,0,1,1,1,1,0,0,0-1-1" transform="translate(380.046 240.07)" fill="#30ba78"/>
      <path id="Path_1147" data-name="Path 1147" d="M240,179a1,1,0,1,0,1,1,1,1,0,0,0-1-1" transform="translate(380.046 239.844)" fill="#30ba78"/>
      <path id="Path_1148" data-name="Path 1148" d="M260,179a1,1,0,1,0,1,1,1,1,0,0,0-1-1" transform="translate(380.045 239.844)" fill="#30ba78"/>
      <path id="Path_1149" data-name="Path 1149" d="M240,59a1,1,0,1,0,1,1,1,1,0,0,0-1-1" transform="translate(380.046 240.116)" fill="#30ba78"/>
      <path id="Path_1152" data-name="Path 1152" d="M260,159a1,1,0,1,0,1,1,1,1,0,0,0-1-1" transform="translate(380.045 239.889)" fill="#30ba78"/>
      <path id="Path_1153" data-name="Path 1153" d="M260,199a1,1,0,1,0,1,1,1,1,0,0,0-1-1" transform="translate(380.045 239.798)" fill="#30ba78"/>
      <path id="Path_1155" data-name="Path 1155" d="M240,39a1,1,0,1,0,1,1,1,1,0,0,0-1-1" transform="translate(380.046 240.161)" fill="#30ba78"/>
      <path id="Path_1156" data-name="Path 1156" d="M240,19a1,1,0,1,0,1,1,1,1,0,0,0-1-1" transform="translate(380.046 240.206)" fill="#30ba78"/>
      <path id="Path_1158" data-name="Path 1158" d="M200,19a1,1,0,1,0,1,1,1,1,0,0,0-1-1" transform="translate(380.049 240.206)" fill="#30ba78"/>
      <path id="Path_1159" data-name="Path 1159" d="M200,39a1,1,0,1,0,1,1,1,1,0,0,0-1-1" transform="translate(380.049 240.161)" fill="#30ba78"/>
      <path id="Path_1160" data-name="Path 1160" d="M260,139a1,1,0,1,0,1,1,1,1,0,0,0-1-1" transform="translate(380.045 239.934)" fill="#30ba78"/>
      <path id="Path_1162" data-name="Path 1162" d="M200,99a1,1,0,1,0,1,1,1,1,0,0,0-1-1" transform="translate(380.049 240.025)" fill="#30ba78"/>
      <path id="Path_1163" data-name="Path 1163" d="M200,59a1,1,0,1,0,1,1,1,1,0,0,0-1-1" transform="translate(380.049 240.116)" fill="#30ba78"/>
      <path id="Path_1164" data-name="Path 1164" d="M220,199a1,1,0,1,0,1,1,1,1,0,0,0-1-1" transform="translate(380.048 239.798)" fill="#30ba78"/>
      <path id="Path_1165" data-name="Path 1165" d="M200,79a1,1,0,1,0,1,1,1,1,0,0,0-1-1" transform="translate(380.049 240.07)" fill="#30ba78"/>
      <path id="Path_1166" data-name="Path 1166" d="M220,119a1,1,0,1,0,1,1,1,1,0,0,0-1-1" transform="translate(380.048 239.98)" fill="#30ba78"/>
      <path id="Path_1167" data-name="Path 1167" d="M220,99a1,1,0,1,0,1,1,1,1,0,0,0-1-1" transform="translate(380.048 240.025)" fill="#30ba78"/>
      <path id="Path_1168" data-name="Path 1168" d="M220,179a1,1,0,1,0,1,1,1,1,0,0,0-1-1" transform="translate(380.048 239.844)" fill="#30ba78"/>
      <path id="Path_1169" data-name="Path 1169" d="M220,59a1,1,0,1,0,1,1,1,1,0,0,0-1-1" transform="translate(380.048 240.116)" fill="#30ba78"/>
      <path id="Path_1170" data-name="Path 1170" d="M220,39a1,1,0,1,0,1,1,1,1,0,0,0-1-1" transform="translate(380.048 240.161)" fill="#30ba78"/>
      <path id="Path_1171" data-name="Path 1171" d="M220,79a1,1,0,1,0,1,1,1,1,0,0,0-1-1" transform="translate(380.048 240.07)" fill="#30ba78"/>
      <path id="Path_1172" data-name="Path 1172" d="M220,159a1,1,0,1,0,1,1,1,1,0,0,0-1-1" transform="translate(380.048 239.889)" fill="#30ba78"/>
      <path id="Path_1173" data-name="Path 1173" d="M220,19a1,1,0,1,0,1,1,1,1,0,0,0-1-1" transform="translate(380.048 240.206)" fill="#30ba78"/>
      <path id="Path_1174" data-name="Path 1174" d="M220,139a1,1,0,1,0,1,1,1,1,0,0,0-1-1" transform="translate(380.048 239.934)" fill="#30ba78"/>
      <path id="Path_1175" data-name="Path 1175" d="M300,99a1,1,0,1,0,1,1,1,1,0,0,0-1-1" transform="translate(380.042 240.025)" fill="#30ba78"/>
      <path id="Path_1176" data-name="Path 1176" d="M300,119a1,1,0,1,0,1,1,1,1,0,0,0-1-1" transform="translate(380.042 239.98)" fill="#30ba78"/>
      <path id="Path_1177" data-name="Path 1177" d="M260,119a1,1,0,1,0,1,1,1,1,0,0,0-1-1" transform="translate(380.045 239.98)" fill="#30ba78"/>
      <path id="Path_1178" data-name="Path 1178" d="M320,139a1,1,0,1,0,1,1,1,1,0,0,0-1-1" transform="translate(380.041 239.934)" fill="#30ba78"/>
      <path id="Path_1179" data-name="Path 1179" d="M300,159a1,1,0,1,0,1,1,1,1,0,0,0-1-1" transform="translate(380.042 239.889)" fill="#30ba78"/>
      <path id="Path_1181" data-name="Path 1181" d="M300,179a1,1,0,1,0,1,1,1,1,0,0,0-1-1" transform="translate(380.042 239.844)" fill="#30ba78"/>
      <path id="Path_1183" data-name="Path 1183" d="M300,199a1,1,0,1,0,1,1,1,1,0,0,0-1-1" transform="translate(380.042 239.798)" fill="#30ba78"/>
      <path id="Path_1184" data-name="Path 1184" d="M300,79a1,1,0,1,0,1,1,1,1,0,0,0-1-1" transform="translate(380.042 240.07)" fill="#30ba78"/>
      <path id="Path_1185" data-name="Path 1185" d="M320,199a1,1,0,1,0,1,1,1,1,0,0,0-1-1" transform="translate(380.041 239.798)" fill="#30ba78"/>
      <path id="Path_1187" data-name="Path 1187" d="M320,179a1,1,0,1,0,1,1,1,1,0,0,0-1-1" transform="translate(380.041 239.844)" fill="#30ba78"/>
      <path id="Path_1188" data-name="Path 1188" d="M300,59a1,1,0,1,0,1,1,1,1,0,0,0-1-1" transform="translate(380.042 240.116)" fill="#30ba78"/>
      <path id="Path_1189" data-name="Path 1189" d="M320,159a1,1,0,1,0,1,1,1,1,0,0,0-1-1" transform="translate(380.041 239.889)" fill="#30ba78"/>
      <path id="Path_1191" data-name="Path 1191" d="M300,39a1,1,0,1,0,1,1,1,1,0,0,0-1-1" transform="translate(380.042 240.161)" fill="#30ba78"/>
      <path id="Path_1192" data-name="Path 1192" d="M300,19a1,1,0,1,0,1,1,1,1,0,0,0-1-1" transform="translate(380.042 240.206)" fill="#30ba78"/>
      <path id="Path_1193" data-name="Path 1193" d="M300,139a1,1,0,1,0,1,1,1,1,0,0,0-1-1" transform="translate(380.042 239.934)" fill="#30ba78"/>
      <path id="Path_1194" data-name="Path 1194" d="M260,39a1,1,0,1,0,1,1,1,1,0,0,0-1-1" transform="translate(380.045 240.161)" fill="#30ba78"/>
      <path id="Path_1195" data-name="Path 1195" d="M280,19a1,1,0,1,0,1,1,1,1,0,0,0-1-1" transform="translate(380.044 240.206)" fill="#30ba78"/>
      <path id="Path_1198" data-name="Path 1198" d="M260,19a1,1,0,1,0,1,1,1,1,0,0,0-1-1" transform="translate(380.045 240.206)" fill="#30ba78"/>
      <path id="Path_1199" data-name="Path 1199" d="M260,59a1,1,0,1,0,1,1,1,1,0,0,0-1-1" transform="translate(380.045 240.116)" fill="#30ba78"/>
      <path id="Path_1200" data-name="Path 1200" d="M260,99a1,1,0,1,0,1,1,1,1,0,0,0-1-1" transform="translate(380.045 240.025)" fill="#30ba78"/>
      <path id="Path_1201" data-name="Path 1201" d="M260,79a1,1,0,1,0,1,1,1,1,0,0,0-1-1" transform="translate(380.045 240.07)" fill="#30ba78"/>
      <path id="Path_1202" data-name="Path 1202" d="M280,199a1,1,0,1,0,1,1,1,1,0,0,0-1-1" transform="translate(380.044 239.798)" fill="#30ba78"/>
      <path id="Path_1203" data-name="Path 1203" d="M280,59a1,1,0,1,0,1,1,1,1,0,0,0-1-1" transform="translate(380.044 240.116)" fill="#30ba78"/>
      <path id="Path_1204" data-name="Path 1204" d="M280,79a1,1,0,1,0,1,1,1,1,0,0,0-1-1" transform="translate(380.044 240.07)" fill="#30ba78"/>
      <path id="Path_1205" data-name="Path 1205" d="M280,99a1,1,0,1,0,1,1,1,1,0,0,0-1-1" transform="translate(380.044 240.025)" fill="#30ba78"/>
      <path id="Path_1206" data-name="Path 1206" d="M280,39a1,1,0,1,0,1,1,1,1,0,0,0-1-1" transform="translate(380.044 240.161)" fill="#30ba78"/>
      <path id="Path_1207" data-name="Path 1207" d="M280,159a1,1,0,1,0,1,1,1,1,0,0,0-1-1" transform="translate(380.044 239.889)" fill="#30ba78"/>
      <path id="Path_1208" data-name="Path 1208" d="M280,119a1,1,0,1,0,1,1,1,1,0,0,0-1-1" transform="translate(380.044 239.98)" fill="#30ba78"/>
      <path id="Path_1209" data-name="Path 1209" d="M280,179a1,1,0,1,0,1,1,1,1,0,0,0-1-1" transform="translate(380.044 239.844)" fill="#30ba78"/>
      <path id="Path_1210" data-name="Path 1210" d="M280,139a1,1,0,1,0,1,1,1,1,0,0,0-1-1" transform="translate(380.044 239.934)" fill="#30ba78"/>
    </g>
    <g id="Group_817" data-name="Group 817" transform="translate(-823 89.794)">
      <path id="Path_647-2" data-name="Path 647" d="M600,159a1,1,0,1,0,1,1,1,1,0,0,0-1-1" transform="translate(380.022 239.889)" fill="#30ba78"/>
      <path id="Path_648-2" data-name="Path 648" d="M600,179a1,1,0,1,0,1,1,1,1,0,0,0-1-1" transform="translate(380.022 239.844)" fill="#30ba78"/>
      <path id="Path_649-2" data-name="Path 649" d="M600,139a1,1,0,1,0,1,1,1,1,0,0,0-1-1" transform="translate(380.022 239.934)" fill="#30ba78"/>
      <path id="Path_650-2" data-name="Path 650" d="M600,119a1,1,0,1,0,1,1,1,1,0,0,0-1-1" transform="translate(380.022 239.98)" fill="#30ba78"/>
      <path id="Path_651-2" data-name="Path 651" d="M600,99a1,1,0,1,0,1,1,1,1,0,0,0-1-1" transform="translate(380.022 240.025)" fill="#30ba78"/>
      <path id="Path_653-2" data-name="Path 653" d="M600,199a1,1,0,1,0,1,1,1,1,0,0,0-1-1" transform="translate(380.022 239.798)" fill="#30ba78"/>
      <path id="Path_657-2" data-name="Path 657" d="M600,79a1,1,0,1,0,1,1,1,1,0,0,0-1-1" transform="translate(380.022 240.07)" fill="#30ba78"/>
      <path id="Path_658-2" data-name="Path 658" d="M620,199a1,1,0,1,0,1,1,1,1,0,0,0-1-1" transform="translate(380.021 239.798)" fill="#30ba78"/>
      <path id="Path_659-2" data-name="Path 659" d="M620,179a1,1,0,1,0,1,1,1,1,0,0,0-1-1" transform="translate(380.021 239.844)" fill="#30ba78"/>
      <path id="Path_660-2" data-name="Path 660" d="M580,19a1,1,0,1,0,1,1,1,1,0,0,0-1-1" transform="translate(380.023 240.206)" fill="#30ba78"/>
      <path id="Path_661-2" data-name="Path 661" d="M600,19a1,1,0,1,0,1,1,1,1,0,0,0-1-1" transform="translate(380.022 240.206)" fill="#30ba78"/>
      <path id="Path_662-2" data-name="Path 662" d="M600,59a1,1,0,1,0,1,1,1,1,0,0,0-1-1" transform="translate(380.022 240.116)" fill="#30ba78"/>
      <path id="Path_663-2" data-name="Path 663" d="M600,39a1,1,0,1,0,1,1,1,1,0,0,0-1-1" transform="translate(380.022 240.161)" fill="#30ba78"/>
      <path id="Path_664-2" data-name="Path 664" d="M580,79a1,1,0,1,0,1,1,1,1,0,0,0-1-1" transform="translate(380.023 240.07)" fill="#30ba78"/>
      <path id="Path_665-2" data-name="Path 665" d="M560,59a1,1,0,1,0,1,1,1,1,0,0,0-1-1" transform="translate(380.025 240.116)" fill="#30ba78"/>
      <path id="Path_666-2" data-name="Path 666" d="M560,39a1,1,0,1,0,1,1,1,1,0,0,0-1-1" transform="translate(380.025 240.161)" fill="#30ba78"/>
      <path id="Path_667-2" data-name="Path 667" d="M560,79a1,1,0,1,0,1,1,1,1,0,0,0-1-1" transform="translate(380.025 240.07)" fill="#30ba78"/>
      <path id="Path_668-2" data-name="Path 668" d="M560,19a1,1,0,1,0,1,1,1,1,0,0,0-1-1" transform="translate(380.025 240.206)" fill="#30ba78"/>
      <path id="Path_669-2" data-name="Path 669" d="M560,99a1,1,0,1,0,1,1,1,1,0,0,0-1-1" transform="translate(380.025 240.025)" fill="#30ba78"/>
      <path id="Path_670-2" data-name="Path 670" d="M560,139a1,1,0,1,0,1,1,1,1,0,0,0-1-1" transform="translate(380.025 239.934)" fill="#30ba78"/>
      <path id="Path_671-2" data-name="Path 671" d="M560,119a1,1,0,1,0,1,1,1,1,0,0,0-1-1" transform="translate(380.025 239.98)" fill="#30ba78"/>
      <path id="Path_673-2" data-name="Path 673" d="M580,159a1,1,0,1,0,1,1,1,1,0,0,0-1-1" transform="translate(380.023 239.889)" fill="#30ba78"/>
      <path id="Path_674-2" data-name="Path 674" d="M620,159a1,1,0,1,0,1,1,1,1,0,0,0-1-1" transform="translate(380.021 239.889)" fill="#30ba78"/>
      <path id="Path_676-2" data-name="Path 676" d="M580,99a1,1,0,1,0,1,1,1,1,0,0,0-1-1" transform="translate(380.023 240.025)" fill="#30ba78"/>
      <path id="Path_677-2" data-name="Path 677" d="M580,59a1,1,0,1,0,1,1,1,1,0,0,0-1-1" transform="translate(380.023 240.116)" fill="#30ba78"/>
      <path id="Path_678-2" data-name="Path 678" d="M580,139a1,1,0,1,0,1,1,1,1,0,0,0-1-1" transform="translate(380.023 239.934)" fill="#30ba78"/>
      <path id="Path_679-2" data-name="Path 679" d="M580,199a1,1,0,1,0,1,1,1,1,0,0,0-1-1" transform="translate(380.023 239.798)" fill="#30ba78"/>
      <path id="Path_680-2" data-name="Path 680" d="M580,179a1,1,0,1,0,1,1,1,1,0,0,0-1-1" transform="translate(380.023 239.844)" fill="#30ba78"/>
      <path id="Path_681-2" data-name="Path 681" d="M580,39a1,1,0,1,0,1,1,1,1,0,0,0-1-1" transform="translate(380.023 240.161)" fill="#30ba78"/>
      <path id="Path_682-2" data-name="Path 682" d="M580,119a1,1,0,1,0,1,1,1,1,0,0,0-1-1" transform="translate(380.023 239.98)" fill="#30ba78"/>
      <path id="Path_683-2" data-name="Path 683" d="M660,99a1,1,0,1,0,1,1,1,1,0,0,0-1-1" transform="translate(380.018 240.025)" fill="#30ba78"/>
      <path id="Path_684-2" data-name="Path 684" d="M660,179a1,1,0,1,0,1,1,1,1,0,0,0-1-1" transform="translate(380.018 239.844)" fill="#30ba78"/>
      <path id="Path_685-2" data-name="Path 685" d="M660,139a1,1,0,1,0,1,1,1,1,0,0,0-1-1" transform="translate(380.018 239.934)" fill="#30ba78"/>
      <path id="Path_686-2" data-name="Path 686" d="M660,119a1,1,0,1,0,1,1,1,1,0,0,0-1-1" transform="translate(380.018 239.98)" fill="#30ba78"/>
      <path id="Path_687-2" data-name="Path 687" d="M660,159a1,1,0,1,0,1,1,1,1,0,0,0-1-1" transform="translate(380.018 239.889)" fill="#30ba78"/>
      <path id="Path_689-2" data-name="Path 689" d="M660,199a1,1,0,1,0,1,1,1,1,0,0,0-1-1" transform="translate(380.018 239.798)" fill="#30ba78"/>
      <path id="Path_691-2" data-name="Path 691" d="M680,199a1,1,0,1,0,1,1,1,1,0,0,0-1-1" transform="translate(380.017 239.798)" fill="#30ba78"/>
      <path id="Path_692-2" data-name="Path 692" d="M680,179a1,1,0,1,0,1,1,1,1,0,0,0-1-1" transform="translate(380.017 239.844)" fill="#30ba78"/>
      <path id="Path_693-2" data-name="Path 693" d="M640,19a1,1,0,1,0,1,1,1,1,0,0,0-1-1" transform="translate(380.02 240.206)" fill="#30ba78"/>
      <path id="Path_694-2" data-name="Path 694" d="M560,159a1,1,0,1,0,1,1,1,1,0,0,0-1-1" transform="translate(380.025 239.889)" fill="#30ba78"/>
      <path id="Path_695-2" data-name="Path 695" d="M660,79a1,1,0,1,0,1,1,1,1,0,0,0-1-1" transform="translate(380.018 240.07)" fill="#30ba78"/>
      <path id="Path_697-2" data-name="Path 697" d="M660,59a1,1,0,1,0,1,1,1,1,0,0,0-1-1" transform="translate(380.018 240.116)" fill="#30ba78"/>
      <path id="Path_698-2" data-name="Path 698" d="M660,39a1,1,0,1,0,1,1,1,1,0,0,0-1-1" transform="translate(380.018 240.161)" fill="#30ba78"/>
      <path id="Path_699-2" data-name="Path 699" d="M660,19a1,1,0,1,0,1,1,1,1,0,0,0-1-1" transform="translate(380.018 240.206)" fill="#30ba78"/>
      <path id="Path_701-2" data-name="Path 701" d="M620,39a1,1,0,1,0,1,1,1,1,0,0,0-1-1" transform="translate(380.021 240.161)" fill="#30ba78"/>
      <path id="Path_702-2" data-name="Path 702" d="M620,19a1,1,0,1,0,1,1,1,1,0,0,0-1-1" transform="translate(380.021 240.206)" fill="#30ba78"/>
      <path id="Path_703-2" data-name="Path 703" d="M640,39a1,1,0,1,0,1,1,1,1,0,0,0-1-1" transform="translate(380.02 240.161)" fill="#30ba78"/>
      <path id="Path_705-2" data-name="Path 705" d="M620,79a1,1,0,1,0,1,1,1,1,0,0,0-1-1" transform="translate(380.021 240.07)" fill="#30ba78"/>
      <path id="Path_706-2" data-name="Path 706" d="M620,119a1,1,0,1,0,1,1,1,1,0,0,0-1-1" transform="translate(380.021 239.98)" fill="#30ba78"/>
      <path id="Path_707-2" data-name="Path 707" d="M620,99a1,1,0,1,0,1,1,1,1,0,0,0-1-1" transform="translate(380.021 240.025)" fill="#30ba78"/>
      <path id="Path_708-2" data-name="Path 708" d="M620,139a1,1,0,1,0,1,1,1,1,0,0,0-1-1" transform="translate(380.021 239.934)" fill="#30ba78"/>
      <path id="Path_709-2" data-name="Path 709" d="M620,59a1,1,0,1,0,1,1,1,1,0,0,0-1-1" transform="translate(380.021 240.116)" fill="#30ba78"/>
      <path id="Path_710-2" data-name="Path 710" d="M640,79a1,1,0,1,0,1,1,1,1,0,0,0-1-1" transform="translate(380.02 240.07)" fill="#30ba78"/>
      <path id="Path_711-2" data-name="Path 711" d="M640,99a1,1,0,1,0,1,1,1,1,0,0,0-1-1" transform="translate(380.02 240.025)" fill="#30ba78"/>
      <path id="Path_712-2" data-name="Path 712" d="M640,119a1,1,0,1,0,1,1,1,1,0,0,0-1-1" transform="translate(380.02 239.98)" fill="#30ba78"/>
      <path id="Path_713-2" data-name="Path 713" d="M640,59a1,1,0,1,0,1,1,1,1,0,0,0-1-1" transform="translate(380.02 240.116)" fill="#30ba78"/>
      <path id="Path_714-2" data-name="Path 714" d="M640,139a1,1,0,1,0,1,1,1,1,0,0,0-1-1" transform="translate(380.02 239.934)" fill="#30ba78"/>
      <path id="Path_715-2" data-name="Path 715" d="M640,179a1,1,0,1,0,1,1,1,1,0,0,0-1-1" transform="translate(380.02 239.844)" fill="#30ba78"/>
      <path id="Path_716-2" data-name="Path 716" d="M640,199a1,1,0,1,0,1,1,1,1,0,0,0-1-1" transform="translate(380.02 239.798)" fill="#30ba78"/>
      <path id="Path_717-2" data-name="Path 717" d="M640,159a1,1,0,1,0,1,1,1,1,0,0,0-1-1" transform="translate(380.02 239.889)" fill="#30ba78"/>
      <path id="Path_718-2" data-name="Path 718" d="M799.9,161.2a1,1,0,1,0-1-1,1,1,0,0,0,1,1" transform="translate(380.008 239.888)" fill="#30ba78"/>
      <path id="Path_719-2" data-name="Path 719" d="M480,199a1,1,0,1,0,1,1,1,1,0,0,0-1-1" transform="translate(380.03 239.798)" fill="#30ba78"/>
      <path id="Path_720-2" data-name="Path 720" d="M480,119a1,1,0,1,0,1,1,1,1,0,0,0-1-1" transform="translate(380.03 239.98)" fill="#30ba78"/>
      <path id="Path_721-2" data-name="Path 721" d="M480,159a1,1,0,1,0,1,1,1,1,0,0,0-1-1" transform="translate(380.03 239.889)" fill="#30ba78"/>
      <path id="Path_722-2" data-name="Path 722" d="M480,139a1,1,0,1,0,1,1,1,1,0,0,0-1-1" transform="translate(380.03 239.934)" fill="#30ba78"/>
      <path id="Path_723-2" data-name="Path 723" d="M460,39a1,1,0,1,0,1,1,1,1,0,0,0-1-1" transform="translate(380.032 240.161)" fill="#30ba78"/>
      <path id="Path_725-2" data-name="Path 725" d="M460,19a1,1,0,1,0,1,1,1,1,0,0,0-1-1" transform="translate(380.032 240.206)" fill="#30ba78"/>
      <path id="Path_726-2" data-name="Path 726" d="M799.9,41.2a1,1,0,1,0-1-1,1,1,0,0,0,1,1" transform="translate(380.008 240.161)" fill="#30ba78"/>
      <path id="Path_727-2" data-name="Path 727" d="M480,179a1,1,0,1,0,1,1,1,1,0,0,0-1-1" transform="translate(380.03 239.844)" fill="#30ba78"/>
      <path id="Path_730-2" data-name="Path 730" d="M480,19a1,1,0,1,0,1,1,1,1,0,0,0-1-1" transform="translate(380.03 240.206)" fill="#30ba78"/>
      <path id="Path_731-2" data-name="Path 731" d="M500,199a1,1,0,1,0,1,1,1,1,0,0,0-1-1" transform="translate(380.029 239.798)" fill="#30ba78"/>
      <path id="Path_732-2" data-name="Path 732" d="M480,99a1,1,0,1,0,1,1,1,1,0,0,0-1-1" transform="translate(380.03 240.025)" fill="#30ba78"/>
      <path id="Path_733-2" data-name="Path 733" d="M480,79a1,1,0,1,0,1,1,1,1,0,0,0-1-1" transform="translate(380.03 240.07)" fill="#30ba78"/>
      <path id="Path_734-2" data-name="Path 734" d="M480,59a1,1,0,1,0,1,1,1,1,0,0,0-1-1" transform="translate(380.03 240.116)" fill="#30ba78"/>
      <path id="Path_735-2" data-name="Path 735" d="M480,39a1,1,0,1,0,1,1,1,1,0,0,0-1-1" transform="translate(380.03 240.161)" fill="#30ba78"/>
      <path id="Path_736-2" data-name="Path 736" d="M500,179a1,1,0,1,0,1,1,1,1,0,0,0-1-1" transform="translate(380.029 239.844)" fill="#30ba78"/>
      <path id="Path_737-2" data-name="Path 737" d="M799.9,21.2a1,1,0,1,0-1-1,1,1,0,0,0,1,1" transform="translate(380.008 240.206)" fill="#30ba78"/>
      <path id="Path_738-2" data-name="Path 738" d="M799.9,81.2a1,1,0,1,0-1-1,1,1,0,0,0,1,1" transform="translate(380.008 240.07)" fill="#30ba78"/>
      <path id="Path_739-2" data-name="Path 739" d="M799.9,101.2a1,1,0,1,0-1-1,1,1,0,0,0,1,1" transform="translate(380.008 240.025)" fill="#30ba78"/>
      <path id="Path_740-2" data-name="Path 740" d="M799.9,61.2a1,1,0,1,0-1-1,1,1,0,0,0,1,1" transform="translate(380.008 240.115)" fill="#30ba78"/>
      <path id="Path_741-2" data-name="Path 741" d="M799.9,121.2a1,1,0,1,0-1-1,1,1,0,0,0,1,1" transform="translate(380.008 239.979)" fill="#30ba78"/>
      <path id="Path_742-2" data-name="Path 742" d="M799.9,141.2a1,1,0,1,0-1-1,1,1,0,0,0,1,1" transform="translate(380.008 239.934)" fill="#30ba78"/>
      <path id="Path_743-2" data-name="Path 743" d="M799.9,181.2a1,1,0,1,0-1-1,1,1,0,0,0,1,1" transform="translate(380.008 239.843)" fill="#30ba78"/>
      <path id="Path_744-2" data-name="Path 744" d="M680,159a1,1,0,1,0,1,1,1,1,0,0,0-1-1" transform="translate(380.017 239.889)" fill="#30ba78"/>
      <path id="Path_745-2" data-name="Path 745" d="M460,179a1,1,0,1,0,1,1,1,1,0,0,0-1-1" transform="translate(380.032 239.844)" fill="#30ba78"/>
      <path id="Path_746-2" data-name="Path 746" d="M560,179a1,1,0,1,0,1,1,1,1,0,0,0-1-1" transform="translate(380.025 239.844)" fill="#30ba78"/>
      <path id="Path_747-2" data-name="Path 747" d="M460,119a1,1,0,1,0,1,1,1,1,0,0,0-1-1" transform="translate(380.032 239.98)" fill="#30ba78"/>
      <path id="Path_748-2" data-name="Path 748" d="M460,79a1,1,0,1,0,1,1,1,1,0,0,0-1-1" transform="translate(380.032 240.07)" fill="#30ba78"/>
      <path id="Path_750-2" data-name="Path 750" d="M460,139a1,1,0,1,0,1,1,1,1,0,0,0-1-1" transform="translate(380.032 239.934)" fill="#30ba78"/>
      <path id="Path_751-2" data-name="Path 751" d="M460,159a1,1,0,1,0,1,1,1,1,0,0,0-1-1" transform="translate(380.032 239.889)" fill="#30ba78"/>
      <path id="Path_752-2" data-name="Path 752" d="M460,199a1,1,0,1,0,1,1,1,1,0,0,0-1-1" transform="translate(380.032 239.798)" fill="#30ba78"/>
      <path id="Path_753-2" data-name="Path 753" d="M460,59a1,1,0,1,0,1,1,1,1,0,0,0-1-1" transform="translate(380.032 240.116)" fill="#30ba78"/>
      <path id="Path_754-2" data-name="Path 754" d="M460,99a1,1,0,1,0,1,1,1,1,0,0,0-1-1" transform="translate(380.032 240.025)" fill="#30ba78"/>
      <path id="Path_755-2" data-name="Path 755" d="M540,199a1,1,0,1,0,1,1,1,1,0,0,0-1-1" transform="translate(380.026 239.798)" fill="#30ba78"/>
      <path id="Path_756-2" data-name="Path 756" d="M540,159a1,1,0,1,0,1,1,1,1,0,0,0-1-1" transform="translate(380.026 239.889)" fill="#30ba78"/>
      <path id="Path_757-2" data-name="Path 757" d="M540,119a1,1,0,1,0,1,1,1,1,0,0,0-1-1" transform="translate(380.026 239.98)" fill="#30ba78"/>
      <path id="Path_758-2" data-name="Path 758" d="M540,139a1,1,0,1,0,1,1,1,1,0,0,0-1-1" transform="translate(380.026 239.934)" fill="#30ba78"/>
      <path id="Path_759-2" data-name="Path 759" d="M540,179a1,1,0,1,0,1,1,1,1,0,0,0-1-1" transform="translate(380.026 239.844)" fill="#30ba78"/>
      <path id="Path_761-2" data-name="Path 761" d="M520,19a1,1,0,1,0,1,1,1,1,0,0,0-1-1" transform="translate(380.027 240.206)" fill="#30ba78"/>
      <path id="Path_763-2" data-name="Path 763" d="M540,59a1,1,0,1,0,1,1,1,1,0,0,0-1-1" transform="translate(380.026 240.116)" fill="#30ba78"/>
      <path id="Path_764-2" data-name="Path 764" d="M540,99a1,1,0,1,0,1,1,1,1,0,0,0-1-1" transform="translate(380.026 240.025)" fill="#30ba78"/>
      <path id="Path_767-2" data-name="Path 767" d="M560,199a1,1,0,1,0,1,1,1,1,0,0,0-1-1" transform="translate(380.025 239.798)" fill="#30ba78"/>
      <path id="Path_768-2" data-name="Path 768" d="M540,19a1,1,0,1,0,1,1,1,1,0,0,0-1-1" transform="translate(380.026 240.206)" fill="#30ba78"/>
      <path id="Path_769-2" data-name="Path 769" d="M540,39a1,1,0,1,0,1,1,1,1,0,0,0-1-1" transform="translate(380.026 240.161)" fill="#30ba78"/>
      <path id="Path_770-2" data-name="Path 770" d="M540,79a1,1,0,1,0,1,1,1,1,0,0,0-1-1" transform="translate(380.026 240.07)" fill="#30ba78"/>
      <path id="Path_771-2" data-name="Path 771" d="M520,39a1,1,0,1,0,1,1,1,1,0,0,0-1-1" transform="translate(380.027 240.161)" fill="#30ba78"/>
      <path id="Path_772-2" data-name="Path 772" d="M500,159a1,1,0,1,0,1,1,1,1,0,0,0-1-1" transform="translate(380.029 239.889)" fill="#30ba78"/>
      <path id="Path_773-2" data-name="Path 773" d="M500,59a1,1,0,1,0,1,1,1,1,0,0,0-1-1" transform="translate(380.029 240.116)" fill="#30ba78"/>
      <path id="Path_775-2" data-name="Path 775" d="M500,39a1,1,0,1,0,1,1,1,1,0,0,0-1-1" transform="translate(380.029 240.161)" fill="#30ba78"/>
      <path id="Path_776-2" data-name="Path 776" d="M500,19a1,1,0,1,0,1,1,1,1,0,0,0-1-1" transform="translate(380.029 240.206)" fill="#30ba78"/>
      <path id="Path_777-2" data-name="Path 777" d="M500,79a1,1,0,1,0,1,1,1,1,0,0,0-1-1" transform="translate(380.029 240.07)" fill="#30ba78"/>
      <path id="Path_778-2" data-name="Path 778" d="M500,139a1,1,0,1,0,1,1,1,1,0,0,0-1-1" transform="translate(380.029 239.934)" fill="#30ba78"/>
      <path id="Path_779-2" data-name="Path 779" d="M500,119a1,1,0,1,0,1,1,1,1,0,0,0-1-1" transform="translate(380.029 239.98)" fill="#30ba78"/>
      <path id="Path_780-2" data-name="Path 780" d="M500,99a1,1,0,1,0,1,1,1,1,0,0,0-1-1" transform="translate(380.029 240.025)" fill="#30ba78"/>
      <path id="Path_781-2" data-name="Path 781" d="M520,199a1,1,0,1,0,1,1,1,1,0,0,0-1-1" transform="translate(380.027 239.798)" fill="#30ba78"/>
      <path id="Path_782-2" data-name="Path 782" d="M520,99a1,1,0,1,0,1,1,1,1,0,0,0-1-1" transform="translate(380.027 240.025)" fill="#30ba78"/>
      <path id="Path_783-2" data-name="Path 783" d="M520,139a1,1,0,1,0,1,1,1,1,0,0,0-1-1" transform="translate(380.027 239.934)" fill="#30ba78"/>
      <path id="Path_784-2" data-name="Path 784" d="M520,119a1,1,0,1,0,1,1,1,1,0,0,0-1-1" transform="translate(380.027 239.98)" fill="#30ba78"/>
      <path id="Path_785-2" data-name="Path 785" d="M520,79a1,1,0,1,0,1,1,1,1,0,0,0-1-1" transform="translate(380.027 240.07)" fill="#30ba78"/>
      <path id="Path_787-2" data-name="Path 787" d="M520,59a1,1,0,1,0,1,1,1,1,0,0,0-1-1" transform="translate(380.027 240.116)" fill="#30ba78"/>
      <path id="Path_788-2" data-name="Path 788" d="M520,179a1,1,0,1,0,1,1,1,1,0,0,0-1-1" transform="translate(380.027 239.844)" fill="#30ba78"/>
      <path id="Path_789-2" data-name="Path 789" d="M520,159a1,1,0,1,0,1,1,1,1,0,0,0-1-1" transform="translate(380.027 239.889)" fill="#30ba78"/>
      <path id="Path_791-2" data-name="Path 791" d="M860,199a1,1,0,1,0,1,1,1,1,0,0,0-1-1" transform="translate(380.004 239.798)" fill="#30ba78"/>
      <path id="Path_793-2" data-name="Path 793" d="M860,179a1,1,0,1,0,1,1,1,1,0,0,0-1-1" transform="translate(380.004 239.844)" fill="#30ba78"/>
      <path id="Path_795-2" data-name="Path 795" d="M840,79a1,1,0,1,0,1,1,1,1,0,0,0-1-1" transform="translate(380.005 240.07)" fill="#30ba78"/>
      <path id="Path_796-2" data-name="Path 796" d="M840,59a1,1,0,1,0,1,1,1,1,0,0,0-1-1" transform="translate(380.005 240.116)" fill="#30ba78"/>
      <path id="Path_797-2" data-name="Path 797" d="M840,19a1,1,0,1,0,1,1,1,1,0,0,0-1-1" transform="translate(380.005 240.206)" fill="#30ba78"/>
      <path id="Path_798-2" data-name="Path 798" d="M860,159a1,1,0,1,0,1,1,1,1,0,0,0-1-1" transform="translate(380.004 239.889)" fill="#30ba78"/>
      <path id="Path_799-2" data-name="Path 799" d="M840,39a1,1,0,1,0,1,1,1,1,0,0,0-1-1" transform="translate(380.005 240.161)" fill="#30ba78"/>
      <path id="Path_800-2" data-name="Path 800" d="M860,119a1,1,0,1,0,1,1,1,1,0,0,0-1-1" transform="translate(380.004 239.98)" fill="#30ba78"/>
      <path id="Path_801-2" data-name="Path 801" d="M860,59a1,1,0,1,0,1,1,1,1,0,0,0-1-1" transform="translate(380.004 240.116)" fill="#30ba78"/>
      <path id="Path_802-2" data-name="Path 802" d="M860,39a1,1,0,1,0,1,1,1,1,0,0,0-1-1" transform="translate(380.004 240.161)" fill="#30ba78"/>
      <path id="Path_803-2" data-name="Path 803" d="M860,19a1,1,0,1,0,1,1,1,1,0,0,0-1-1" transform="translate(380.004 240.206)" fill="#30ba78"/>
      <path id="Path_805-2" data-name="Path 805" d="M860,79a1,1,0,1,0,1,1,1,1,0,0,0-1-1" transform="translate(380.004 240.07)" fill="#30ba78"/>
      <path id="Path_806-2" data-name="Path 806" d="M840,99a1,1,0,1,0,1,1,1,1,0,0,0-1-1" transform="translate(380.005 240.025)" fill="#30ba78"/>
      <path id="Path_807-2" data-name="Path 807" d="M860,139a1,1,0,1,0,1,1,1,1,0,0,0-1-1" transform="translate(380.004 239.934)" fill="#30ba78"/>
      <path id="Path_808-2" data-name="Path 808" d="M860,99a1,1,0,1,0,1,1,1,1,0,0,0-1-1" transform="translate(380.004 240.025)" fill="#30ba78"/>
      <path id="Path_810-2" data-name="Path 810" d="M820,139a1,1,0,1,0,1,1,1,1,0,0,0-1-1" transform="translate(380.007 239.934)" fill="#30ba78"/>
      <path id="Path_811-2" data-name="Path 811" d="M820,99a1,1,0,1,0,1,1,1,1,0,0,0-1-1" transform="translate(380.007 240.025)" fill="#30ba78"/>
      <path id="Path_812-2" data-name="Path 812" d="M840,119a1,1,0,1,0,1,1,1,1,0,0,0-1-1" transform="translate(380.005 239.98)" fill="#30ba78"/>
      <path id="Path_813-2" data-name="Path 813" d="M820,79a1,1,0,1,0,1,1,1,1,0,0,0-1-1" transform="translate(380.007 240.07)" fill="#30ba78"/>
      <path id="Path_814-2" data-name="Path 814" d="M820,199a1,1,0,1,0,1,1,1,1,0,0,0-1-1" transform="translate(380.007 239.798)" fill="#30ba78"/>
      <path id="Path_815-2" data-name="Path 815" d="M820,59a1,1,0,1,0,1,1,1,1,0,0,0-1-1" transform="translate(380.007 240.116)" fill="#30ba78"/>
      <path id="Path_816-2" data-name="Path 816" d="M820,159a1,1,0,1,0,1,1,1,1,0,0,0-1-1" transform="translate(380.007 239.889)" fill="#30ba78"/>
      <path id="Path_817-2" data-name="Path 817" d="M820,179a1,1,0,1,0,1,1,1,1,0,0,0-1-1" transform="translate(380.007 239.844)" fill="#30ba78"/>
      <path id="Path_818-2" data-name="Path 818" d="M820,119a1,1,0,1,0,1,1,1,1,0,0,0-1-1" transform="translate(380.007 239.98)" fill="#30ba78"/>
      <path id="Path_819-2" data-name="Path 819" d="M840,159a1,1,0,1,0,1,1,1,1,0,0,0-1-1" transform="translate(380.005 239.889)" fill="#30ba78"/>
      <path id="Path_820-2" data-name="Path 820" d="M840,199a1,1,0,1,0,1,1,1,1,0,0,0-1-1" transform="translate(380.005 239.798)" fill="#30ba78"/>
      <path id="Path_822-2" data-name="Path 822" d="M840,139a1,1,0,1,0,1,1,1,1,0,0,0-1-1" transform="translate(380.005 239.934)" fill="#30ba78"/>
      <path id="Path_823-2" data-name="Path 823" d="M820,39a1,1,0,1,0,1,1,1,1,0,0,0-1-1" transform="translate(380.007 240.161)" fill="#30ba78"/>
      <path id="Path_825-2" data-name="Path 825" d="M820,19a1,1,0,1,0,1,1,1,1,0,0,0-1-1" transform="translate(380.007 240.206)" fill="#30ba78"/>
      <path id="Path_827-2" data-name="Path 827" d="M840,179a1,1,0,1,0,1,1,1,1,0,0,0-1-1" transform="translate(380.005 239.844)" fill="#30ba78"/>
      <path id="Path_833-2" data-name="Path 833" d="M900,79a1,1,0,1,0,1,1,1,1,0,0,0-1-1" transform="translate(380.001 240.07)" fill="#30ba78"/>
      <path id="Path_834-2" data-name="Path 834" d="M900,19a1,1,0,1,0,1,1,1,1,0,0,0-1-1" transform="translate(380.001 240.206)" fill="#30ba78"/>
      <path id="Path_835-2" data-name="Path 835" d="M900,39a1,1,0,1,0,1,1,1,1,0,0,0-1-1" transform="translate(380.001 240.161)" fill="#30ba78"/>
      <path id="Path_836-2" data-name="Path 836" d="M900,59a1,1,0,1,0,1,1,1,1,0,0,0-1-1" transform="translate(380.001 240.116)" fill="#30ba78"/>
      <path id="Path_845-2" data-name="Path 845" d="M880,159a1,1,0,1,0,1,1,1,1,0,0,0-1-1" transform="translate(380.003 239.889)" fill="#30ba78"/>
      <path id="Path_846-2" data-name="Path 846" d="M880,99a1,1,0,1,0,1,1,1,1,0,0,0-1-1" transform="translate(380.003 240.025)" fill="#30ba78"/>
      <path id="Path_847-2" data-name="Path 847" d="M880,119a1,1,0,1,0,1,1,1,1,0,0,0-1-1" transform="translate(380.003 239.98)" fill="#30ba78"/>
      <path id="Path_848-2" data-name="Path 848" d="M880,79a1,1,0,1,0,1,1,1,1,0,0,0-1-1" transform="translate(380.003 240.07)" fill="#30ba78"/>
      <path id="Path_849-2" data-name="Path 849" d="M900,99a1,1,0,1,0,1,1,1,1,0,0,0-1-1" transform="translate(380.001 240.025)" fill="#30ba78"/>
      <path id="Path_850-2" data-name="Path 850" d="M880,39a1,1,0,1,0,1,1,1,1,0,0,0-1-1" transform="translate(380.003 240.161)" fill="#30ba78"/>
      <path id="Path_851-2" data-name="Path 851" d="M880,139a1,1,0,1,0,1,1,1,1,0,0,0-1-1" transform="translate(380.003 239.934)" fill="#30ba78"/>
      <path id="Path_852-2" data-name="Path 852" d="M880,179a1,1,0,1,0,1,1,1,1,0,0,0-1-1" transform="translate(380.003 239.844)" fill="#30ba78"/>
      <path id="Path_853-2" data-name="Path 853" d="M880,199a1,1,0,1,0,1,1,1,1,0,0,0-1-1" transform="translate(380.003 239.798)" fill="#30ba78"/>
      <path id="Path_854-2" data-name="Path 854" d="M880,59a1,1,0,1,0,1,1,1,1,0,0,0-1-1" transform="translate(380.003 240.116)" fill="#30ba78"/>
      <path id="Path_855-2" data-name="Path 855" d="M900,139a1,1,0,1,0,1,1,1,1,0,0,0-1-1" transform="translate(380.001 239.934)" fill="#30ba78"/>
      <path id="Path_856-2" data-name="Path 856" d="M900,179a1,1,0,1,0,1,1,1,1,0,0,0-1-1" transform="translate(380.001 239.844)" fill="#30ba78"/>
      <path id="Path_857-2" data-name="Path 857" d="M880,19a1,1,0,1,0,1,1,1,1,0,0,0-1-1" transform="translate(380.003 240.206)" fill="#30ba78"/>
      <path id="Path_858-2" data-name="Path 858" d="M900,119a1,1,0,1,0,1,1,1,1,0,0,0-1-1" transform="translate(380.001 239.98)" fill="#30ba78"/>
      <path id="Path_859-2" data-name="Path 859" d="M900,159a1,1,0,1,0,1,1,1,1,0,0,0-1-1" transform="translate(380.001 239.889)" fill="#30ba78"/>
      <path id="Path_862-2" data-name="Path 862" d="M900,199a1,1,0,1,0,1,1,1,1,0,0,0-1-1" transform="translate(380.001 239.798)" fill="#30ba78"/>
      <path id="Path_864-2" data-name="Path 864" d="M720,179a1,1,0,1,0,1,1,1,1,0,0,0-1-1" transform="translate(380.014 239.844)" fill="#30ba78"/>
      <path id="Path_865-2" data-name="Path 865" d="M720,99a1,1,0,1,0,1,1,1,1,0,0,0-1-1" transform="translate(380.014 240.025)" fill="#30ba78"/>
      <path id="Path_866-2" data-name="Path 866" d="M720,159a1,1,0,1,0,1,1,1,1,0,0,0-1-1" transform="translate(380.014 239.889)" fill="#30ba78"/>
      <path id="Path_867-2" data-name="Path 867" d="M720,119a1,1,0,1,0,1,1,1,1,0,0,0-1-1" transform="translate(380.014 239.98)" fill="#30ba78"/>
      <path id="Path_868-2" data-name="Path 868" d="M720,139a1,1,0,1,0,1,1,1,1,0,0,0-1-1" transform="translate(380.014 239.934)" fill="#30ba78"/>
      <path id="Path_871-2" data-name="Path 871" d="M700,19a1,1,0,1,0,1,1,1,1,0,0,0-1-1" transform="translate(380.015 240.206)" fill="#30ba78"/>
      <path id="Path_874-2" data-name="Path 874" d="M740,199a1,1,0,1,0,1,1,1,1,0,0,0-1-1" transform="translate(380.013 239.798)" fill="#30ba78"/>
      <path id="Path_876-2" data-name="Path 876" d="M720,79a1,1,0,1,0,1,1,1,1,0,0,0-1-1" transform="translate(380.014 240.07)" fill="#30ba78"/>
      <path id="Path_877-2" data-name="Path 877" d="M740,179a1,1,0,1,0,1,1,1,1,0,0,0-1-1" transform="translate(380.013 239.844)" fill="#30ba78"/>
      <path id="Path_878-2" data-name="Path 878" d="M720,59a1,1,0,1,0,1,1,1,1,0,0,0-1-1" transform="translate(380.014 240.116)" fill="#30ba78"/>
      <path id="Path_879-2" data-name="Path 879" d="M720,39a1,1,0,1,0,1,1,1,1,0,0,0-1-1" transform="translate(380.014 240.161)" fill="#30ba78"/>
      <path id="Path_880-2" data-name="Path 880" d="M720,19a1,1,0,1,0,1,1,1,1,0,0,0-1-1" transform="translate(380.014 240.206)" fill="#30ba78"/>
      <path id="Path_881-2" data-name="Path 881" d="M700,119a1,1,0,1,0,1,1,1,1,0,0,0-1-1" transform="translate(380.015 239.98)" fill="#30ba78"/>
      <path id="Path_882-2" data-name="Path 882" d="M680,19a1,1,0,1,0,1,1,1,1,0,0,0-1-1" transform="translate(380.017 240.206)" fill="#30ba78"/>
      <path id="Path_883-2" data-name="Path 883" d="M680,39a1,1,0,1,0,1,1,1,1,0,0,0-1-1" transform="translate(380.017 240.161)" fill="#30ba78"/>
      <path id="Path_885-2" data-name="Path 885" d="M680,59a1,1,0,1,0,1,1,1,1,0,0,0-1-1" transform="translate(380.017 240.116)" fill="#30ba78"/>
      <path id="Path_887-2" data-name="Path 887" d="M680,119a1,1,0,1,0,1,1,1,1,0,0,0-1-1" transform="translate(380.017 239.98)" fill="#30ba78"/>
      <path id="Path_888-2" data-name="Path 888" d="M680,99a1,1,0,1,0,1,1,1,1,0,0,0-1-1" transform="translate(380.017 240.025)" fill="#30ba78"/>
      <path id="Path_889-2" data-name="Path 889" d="M680,79a1,1,0,1,0,1,1,1,1,0,0,0-1-1" transform="translate(380.017 240.07)" fill="#30ba78"/>
      <path id="Path_890-2" data-name="Path 890" d="M700,79a1,1,0,1,0,1,1,1,1,0,0,0-1-1" transform="translate(380.015 240.07)" fill="#30ba78"/>
      <path id="Path_891-2" data-name="Path 891" d="M700,199a1,1,0,1,0,1,1,1,1,0,0,0-1-1" transform="translate(380.015 239.798)" fill="#30ba78"/>
      <path id="Path_892-2" data-name="Path 892" d="M700,39a1,1,0,1,0,1,1,1,1,0,0,0-1-1" transform="translate(380.015 240.161)" fill="#30ba78"/>
      <path id="Path_893-2" data-name="Path 893" d="M700,59a1,1,0,1,0,1,1,1,1,0,0,0-1-1" transform="translate(380.015 240.116)" fill="#30ba78"/>
      <path id="Path_894-2" data-name="Path 894" d="M740,159a1,1,0,1,0,1,1,1,1,0,0,0-1-1" transform="translate(380.013 239.889)" fill="#30ba78"/>
      <path id="Path_895-2" data-name="Path 895" d="M700,99a1,1,0,1,0,1,1,1,1,0,0,0-1-1" transform="translate(380.015 240.025)" fill="#30ba78"/>
      <path id="Path_896-2" data-name="Path 896" d="M700,179a1,1,0,1,0,1,1,1,1,0,0,0-1-1" transform="translate(380.015 239.844)" fill="#30ba78"/>
      <path id="Path_897-2" data-name="Path 897" d="M700,159a1,1,0,1,0,1,1,1,1,0,0,0-1-1" transform="translate(380.015 239.889)" fill="#30ba78"/>
      <path id="Path_898-2" data-name="Path 898" d="M700,139a1,1,0,1,0,1,1,1,1,0,0,0-1-1" transform="translate(380.015 239.934)" fill="#30ba78"/>
      <path id="Path_899-2" data-name="Path 899" d="M720,199a1,1,0,1,0,1,1,1,1,0,0,0-1-1" transform="translate(380.014 239.798)" fill="#30ba78"/>
      <path id="Path_900-2" data-name="Path 900" d="M780,179a1,1,0,1,0,1,1,1,1,0,0,0-1-1" transform="translate(380.01 239.844)" fill="#30ba78"/>
      <path id="Path_901-2" data-name="Path 901" d="M780,119a1,1,0,1,0,1,1,1,1,0,0,0-1-1" transform="translate(380.01 239.98)" fill="#30ba78"/>
      <path id="Path_902-2" data-name="Path 902" d="M780,139a1,1,0,1,0,1,1,1,1,0,0,0-1-1" transform="translate(380.01 239.934)" fill="#30ba78"/>
      <path id="Path_903-2" data-name="Path 903" d="M780,199a1,1,0,1,0,1,1,1,1,0,0,0-1-1" transform="translate(380.01 239.798)" fill="#30ba78"/>
      <path id="Path_904-2" data-name="Path 904" d="M780,159a1,1,0,1,0,1,1,1,1,0,0,0-1-1" transform="translate(380.01 239.889)" fill="#30ba78"/>
      <path id="Path_906-2" data-name="Path 906" d="M760,19a1,1,0,1,0,1,1,1,1,0,0,0-1-1" transform="translate(380.011 240.206)" fill="#30ba78"/>
      <path id="Path_908-2" data-name="Path 908" d="M780,79a1,1,0,1,0,1,1,1,1,0,0,0-1-1" transform="translate(380.01 240.07)" fill="#30ba78"/>
      <path id="Path_909-2" data-name="Path 909" d="M780,99a1,1,0,1,0,1,1,1,1,0,0,0-1-1" transform="translate(380.01 240.025)" fill="#30ba78"/>
      <path id="Path_910-2" data-name="Path 910" d="M799.9,201.2a1,1,0,1,0-1-1,1,1,0,0,0,1,1" transform="translate(380.008 239.798)" fill="#30ba78"/>
      <path id="Path_911-2" data-name="Path 911" d="M780,19a1,1,0,1,0,1,1,1,1,0,0,0-1-1" transform="translate(380.01 240.206)" fill="#30ba78"/>
      <path id="Path_912-2" data-name="Path 912" d="M680,139a1,1,0,1,0,1,1,1,1,0,0,0-1-1" transform="translate(380.017 239.934)" fill="#30ba78"/>
      <path id="Path_914-2" data-name="Path 914" d="M760,39a1,1,0,1,0,1,1,1,1,0,0,0-1-1" transform="translate(380.011 240.161)" fill="#30ba78"/>
      <path id="Path_915-2" data-name="Path 915" d="M780,39a1,1,0,1,0,1,1,1,1,0,0,0-1-1" transform="translate(380.01 240.161)" fill="#30ba78"/>
      <path id="Path_916-2" data-name="Path 916" d="M780,59a1,1,0,1,0,1,1,1,1,0,0,0-1-1" transform="translate(380.01 240.116)" fill="#30ba78"/>
      <path id="Path_917-2" data-name="Path 917" d="M740,59a1,1,0,1,0,1,1,1,1,0,0,0-1-1" transform="translate(380.013 240.116)" fill="#30ba78"/>
      <path id="Path_918-2" data-name="Path 918" d="M740,139a1,1,0,1,0,1,1,1,1,0,0,0-1-1" transform="translate(380.013 239.934)" fill="#30ba78"/>
      <path id="Path_919-2" data-name="Path 919" d="M740,39a1,1,0,1,0,1,1,1,1,0,0,0-1-1" transform="translate(380.013 240.161)" fill="#30ba78"/>
      <path id="Path_920-2" data-name="Path 920" d="M740,19a1,1,0,1,0,1,1,1,1,0,0,0-1-1" transform="translate(380.013 240.206)" fill="#30ba78"/>
      <path id="Path_921-2" data-name="Path 921" d="M740,79a1,1,0,1,0,1,1,1,1,0,0,0-1-1" transform="translate(380.013 240.07)" fill="#30ba78"/>
      <path id="Path_922-2" data-name="Path 922" d="M740,99a1,1,0,1,0,1,1,1,1,0,0,0-1-1" transform="translate(380.013 240.025)" fill="#30ba78"/>
      <path id="Path_923-2" data-name="Path 923" d="M760,59a1,1,0,1,0,1,1,1,1,0,0,0-1-1" transform="translate(380.011 240.116)" fill="#30ba78"/>
      <path id="Path_925-2" data-name="Path 925" d="M740,119a1,1,0,1,0,1,1,1,1,0,0,0-1-1" transform="translate(380.013 239.98)" fill="#30ba78"/>
      <path id="Path_926-2" data-name="Path 926" d="M760,79a1,1,0,1,0,1,1,1,1,0,0,0-1-1" transform="translate(380.011 240.07)" fill="#30ba78"/>
      <path id="Path_928-2" data-name="Path 928" d="M760,139a1,1,0,1,0,1,1,1,1,0,0,0-1-1" transform="translate(380.011 239.934)" fill="#30ba78"/>
      <path id="Path_929-2" data-name="Path 929" d="M760,99a1,1,0,1,0,1,1,1,1,0,0,0-1-1" transform="translate(380.011 240.025)" fill="#30ba78"/>
      <path id="Path_930-2" data-name="Path 930" d="M760,119a1,1,0,1,0,1,1,1,1,0,0,0-1-1" transform="translate(380.011 239.98)" fill="#30ba78"/>
      <path id="Path_931-2" data-name="Path 931" d="M760,159a1,1,0,1,0,1,1,1,1,0,0,0-1-1" transform="translate(380.011 239.889)" fill="#30ba78"/>
      <path id="Path_932-2" data-name="Path 932" d="M760,179a1,1,0,1,0,1,1,1,1,0,0,0-1-1" transform="translate(380.011 239.844)" fill="#30ba78"/>
      <path id="Path_933-2" data-name="Path 933" d="M760,199a1,1,0,1,0,1,1,1,1,0,0,0-1-1" transform="translate(380.011 239.798)" fill="#30ba78"/>
    </g>
  </g>
</svg>
