<?xml version="1.0" encoding="utf-8"?>
<!-- Generator: Adobe Illustrator 24.3.0, SVG Export Plug-In . SVG Version: 6.00 Build 0)  -->
<svg version="1.1" id="Layer_1" xmlns="http://www.w3.org/2000/svg" xmlns:xlink="http://www.w3.org/1999/xlink" x="0px" y="0px"
	 viewBox="0 0 180.3 20" style="enable-background:new 0 0 180.3 20;" xml:space="preserve">
<style type="text/css">
	.st0{fill:#FFFFFF;}
</style>
<g id="Group_55" transform="translate(26.697 20.777)">
	<path id="Path_144" class="st0" d="M23.9-6h-5.7c-0.4,0-0.8-0.4-0.8-0.8c0,0,0,0,0,0v-2.9h5.5c0.5,0,0.8-0.4,0.8-0.9
		c0-0.5-0.4-0.8-0.8-0.8h-5.5v-2.8c0-0.4,0.4-0.8,0.8-0.8l0,0h5.7c0.5,0,0.9-0.4,0.9-0.9s-0.4-0.9-0.9-0.9l0,0h-5.7
		c-1.4,0-2.6,1.2-2.6,2.6v7.5c0,1.4,1.2,2.6,2.6,2.6h5.7c0.5,0,0.9-0.4,0.9-0.9S24.4-6,23.9-6L23.9-6 M7.1-11.4
		c-0.9-0.1-1.7-0.4-2.5-0.8c-0.4-0.2-0.7-0.7-0.7-1.2c0-0.5,0.3-1.1,0.7-1.3c0.6-0.4,1.3-0.6,2-0.5c0.7,0,1.5,0.1,2.1,0.5
		c0.3,0.2,0.6,0.4,0.8,0.7c0.3,0.4,1,0.5,1.4,0.1c0.4-0.3,0.5-1,0.1-1.4c-0.4-0.5-0.9-0.9-1.5-1.2c-0.9-0.4-1.9-0.7-3-0.6
		c-0.9,0-1.8,0.2-2.6,0.5c-0.7,0.3-1.3,0.8-1.7,1.4c-0.4,0.6-0.6,1.3-0.6,2c0,0.6,0.1,1.2,0.5,1.7c0.4,0.5,0.9,0.9,1.5,1.2
		c0.9,0.4,1.8,0.6,2.8,0.8c0.8,0.1,1.7,0.4,2.4,0.7C9.3-8.5,9.5-8,9.6-7.6c0,0.6-0.3,1.1-0.8,1.3C8.1-5.9,7.4-5.7,6.6-5.8
		C5.8-5.8,5-5.9,4.2-6.3c-0.4-0.2-0.7-0.5-1-0.8c-0.4-0.4-1-0.4-1.4-0.1c0,0,0,0,0,0l0,0c-0.4,0.4-0.4,0.9,0,1.3
		c1.3,1.3,3.1,2,4.9,1.8c0.9,0,1.8-0.1,2.6-0.5c0.7-0.3,1.3-0.7,1.8-1.3c0.4-0.6,0.6-1.2,0.6-2c0-0.6-0.1-1.2-0.5-1.7
		c-0.4-0.5-0.9-0.9-1.5-1.2C8.9-11,8-11.2,7.1-11.4 M-21.2-11.4c-0.9-0.1-1.7-0.4-2.5-0.8c-0.4-0.2-0.7-0.7-0.7-1.2
		c0-0.5,0.3-1.1,0.7-1.3c0.6-0.4,1.3-0.6,2-0.5c0.7,0,1.5,0.1,2.1,0.5c0.3,0.2,0.6,0.4,0.8,0.7c0.3,0.4,0.9,0.6,1.4,0.2
		c0.4-0.3,0.6-0.9,0.2-1.4c0,0-0.1-0.1-0.1-0.1c-0.4-0.5-0.9-0.9-1.5-1.2c-0.9-0.4-1.9-0.7-3-0.6c-0.9,0-1.8,0.2-2.6,0.5
		c-0.7,0.3-1.3,0.8-1.7,1.4c-0.4,0.6-0.6,1.3-0.6,1.9c0,0.6,0.1,1.2,0.5,1.7c0.4,0.5,0.9,0.9,1.5,1.2c0.9,0.4,1.8,0.6,2.8,0.8
		c0.8,0.1,1.7,0.4,2.4,0.7c0.4,0.2,0.7,0.6,0.7,1.1c0,0.6-0.3,1.1-0.8,1.3c-0.7,0.3-1.4,0.5-2.1,0.5c-0.8,0-1.7-0.2-2.4-0.5
		c-0.4-0.2-0.7-0.5-1-0.8c-0.4-0.4-1-0.4-1.4-0.1c0,0,0,0,0,0l0,0c-0.4,0.4-0.4,0.9,0,1.3c1.3,1.3,3.1,2,4.9,1.8
		c0.9,0,1.8-0.1,2.6-0.4c0.7-0.3,1.3-0.7,1.8-1.3c0.4-0.6,0.6-1.2,0.6-2c0-0.6-0.1-1.2-0.5-1.7c-0.4-0.5-0.9-0.9-1.5-1.2
		C-19.3-11-20.2-11.2-21.2-11.4 M-2.3-16v7c0.1,1.4-0.4,2.7-1.3,3.8c-2.3,1.7-5.4,1.7-7.7,0c-0.9-1-1.4-2.4-1.3-3.8V-16
		c0-0.6,0.5-1,1.1-1c0.5,0,1,0.5,1,1v6.7c-0.1,0.9,0.2,1.9,0.8,2.6c1.4,1.1,3.3,1.1,4.7,0c0.6-0.8,0.8-1.7,0.8-2.6V-16
		c0-0.6,0.5-1,1.1-1C-2.8-17-2.3-16.5-2.3-16"/>
</g>
<path class="st0" d="M70,8.2c0,2.1-1.5,3.4-3.8,3.4h-2.6V16h-1.4V4.8h4C68.5,4.8,70,6.1,70,8.2z M68.6,8.2c0-1.4-0.8-2.1-2.5-2.1
	h-2.4v4.3H66C67.8,10.3,68.6,9.6,68.6,8.2z"/>
<path class="st0" d="M77.3,7.5L77,8.8c-0.3-0.1-0.6-0.2-1.1-0.2c-1,0-2.2,0.9-2.2,2.8V16h-1.4V7.5h1.1l0.2,1.4
	c0.5-1,1.4-1.6,2.7-1.6C76.7,7.3,77.1,7.4,77.3,7.5z"/>
<path class="st0" d="M86.7,11.8c0,2.8-1.5,4.4-4.1,4.4s-4.1-1.7-4.1-4.4c0-2.8,1.5-4.4,4.1-4.4S86.7,9,86.7,11.8z M79.9,11.8
	c0,2,1,3.2,2.8,3.2s2.8-1.2,2.8-3.2c0-2-1-3.2-2.8-3.2S79.9,9.7,79.9,11.8z"/>
<path class="st0" d="M96.9,3.6V16h-1.2l-0.1-1.5c-0.5,1-1.6,1.6-2.9,1.6c-2.4,0-3.9-1.6-3.9-4.4c0-2.8,1.5-4.4,3.9-4.4
	c1.3,0,2.3,0.6,2.8,1.5V3.6H96.9z M95.6,11.9v-0.2c0-1.9-1.1-3.1-2.7-3.1c-1.7,0-2.7,1.3-2.7,3.2c0,2,1,3.2,2.7,3.2
	C94.5,15,95.6,13.8,95.6,11.9z"/>
<path class="st0" d="M107.4,7.5V16h-1.2l-0.1-1.3c-0.6,1-1.7,1.5-3,1.5c-1.7,0-3.1-0.9-3.1-3.1V7.5h1.4v5.2c0,1.8,0.8,2.3,2,2.3
	c1.4,0,2.7-0.9,2.7-2.9V7.5H107.4z"/>
<path class="st0" d="M117.7,9.6l-1.3,0.6c-0.4-1.1-1.1-1.7-2.3-1.7c-1.7,0-2.7,1.2-2.7,3.2c0,2,1,3.2,2.7,3.2c1.3,0,2.1-0.6,2.4-1.8
	l1.3,0.4c-0.6,1.6-1.8,2.5-3.6,2.5c-2.6,0-4.1-1.7-4.1-4.4c0-2.8,1.5-4.4,4.1-4.4C115.9,7.3,117.1,8.2,117.7,9.6z"/>
<path class="st0" d="M125.4,15.4c-0.5,0.5-1.3,0.8-2.2,0.8c-1.3,0-2.3-0.6-2.4-2.3V8.7h-1.7V7.5h1.7v-2l1.4-0.4v2.4h3.1v1.2h-3.1v5
	c0,0.8,0.5,1.2,1.3,1.2c0.6,0,1.1-0.2,1.4-0.6L125.4,15.4z"/>
<path class="st0" d="M133.4,4.8h4c2.7,0,3.8,1.2,3.8,3.1c0,1.1-0.7,2.2-1.9,2.4v0c1.3,0.3,2.2,1.3,2.2,2.5c0,1.9-1.5,3.1-4.1,3.1h-4
	V4.8z M137.4,9.7c1.6,0,2.4-0.6,2.4-1.8c0-1.2-0.8-1.8-2.4-1.8h-2.7v3.7H137.4z M137.7,14.7c1.6,0,2.4-0.7,2.4-1.9
	c0-1.2-0.8-1.9-2.4-1.9h-2.9v3.7H137.7z"/>
<path class="st0" d="M149.2,7.5l-0.3,1.3c-0.3-0.1-0.6-0.2-1.1-0.2c-1,0-2.2,0.9-2.2,2.8V16h-1.4V7.5h1.1l0.2,1.4
	c0.5-1,1.4-1.6,2.7-1.6C148.5,7.3,148.9,7.4,149.2,7.5z"/>
<path class="st0" d="M158.6,14.9l-0.1,1.1c-0.2,0.1-0.6,0.2-1,0.2c-0.8,0-1.4-0.3-1.5-1.3c-0.5,0.8-1.6,1.3-2.7,1.3
	c-1.6,0-2.9-0.7-2.9-2.3c0-1.3,1.1-2.3,3.3-2.7l2.3-0.4v-0.5c0-1.1-0.7-1.9-2-1.9c-1.1,0-2,0.5-2.4,1.6l-1-0.7
	c0.4-1.3,1.8-2.1,3.4-2.1c1.9,0,3.3,0.9,3.3,2.9v4.2c0,0.4,0.2,0.6,0.6,0.6C158.1,15,158.4,15,158.6,14.9z M155.9,13.1V12l-1.9,0.4
	c-1.5,0.3-2.3,0.8-2.3,1.6c0,0.7,0.6,1.1,1.5,1.1C154.6,15,155.9,14.3,155.9,13.1z"/>
<path class="st0" d="M168,10.6V16h-1.4v-5c0-1.9-0.9-2.5-2.1-2.5c-1.2,0-2.6,0.8-2.6,3V16h-1.4V7.5h1.2l0.1,1.3
	c0.6-1.1,1.7-1.5,2.9-1.5C166.5,7.3,168,8.4,168,10.6z"/>
<path class="st0" d="M178.6,3.6V16h-1.2l-0.1-1.5c-0.5,1-1.6,1.6-2.9,1.6c-2.4,0-3.9-1.6-3.9-4.4c0-2.8,1.5-4.4,3.9-4.4
	c1.3,0,2.3,0.6,2.8,1.5V3.6H178.6z M177.2,11.9v-0.2c0-1.9-1.1-3.1-2.7-3.1c-1.7,0-2.7,1.3-2.7,3.2c0,2,1,3.2,2.7,3.2
	C176.2,15,177.2,13.8,177.2,11.9z"/>
</svg>
